STARTFONT 2.1
FONT -FontForge-Comic Sans MS-Book-R-Normal-SansMS-24-240-75-75-P-140-ISO10646-1
SIZE 24 75 75
FONTBOUNDINGBOX 31 33 -2 -6
COMMENT "Generated by fontforge, http://fontforge.sourceforge.net"
COMMENT "(c) 2018 Microsoft Corporation. All Rights Reserved."
STARTPROPERTIES 38
FOUNDRY "FontForge"
FAMILY_NAME "Comic Sans MS"
WEIGHT_NAME "Book"
SLANT "R"
SETWIDTH_NAME "Normal"
ADD_STYLE_NAME "SansMS"
PIXEL_SIZE 24
POINT_SIZE 240
RESOLUTION_X 75
RESOLUTION_Y 75
SPACING "P"
AVERAGE_WIDTH 140
CHARSET_REGISTRY "ISO10646"
CHARSET_ENCODING "1"
FONTNAME_REGISTRY ""
CHARSET_COLLECTIONS "ISO8859-2 ISO8859-5 ISO8859-7 ISO8859-9 ISO8859-4 ISO10646-1"
FONT_NAME "ComicSansMS"
FACE_NAME "Comic Sans MS"
COPYRIGHT "(c) 2018 Microsoft Corporation. All Rights Reserved."
FONT_VERSION "5.14"
FONT_ASCENT 19
FONT_DESCENT 5
UNDERLINE_POSITION -4
UNDERLINE_THICKNESS 3
X_HEIGHT 12
CAP_HEIGHT 17
RAW_ASCENT 799
RAW_DESCENT 200
RELATIVE_WEIGHT 40
RELATIVE_SETWIDTH 50
SUPERSCRIPT_X 0
SUPERSCRIPT_Y 10
SUPERSCRIPT_SIZE 15
SUBSCRIPT_X 0
SUBSCRIPT_Y 3
SUBSCRIPT_SIZE 15
AVG_LOWERCASE_WIDTH 121
AVG_UPPERCASE_WIDTH 166
ENDPROPERTIES
CHARS 319
STARTCHAR exclam
ENCODING 33
SWIDTH 237 0
DWIDTH 6 0
BBX 2 19 2 0
BITMAP
80
C0
C0
C0
C0
C0
C0
C0
C0
C0
C0
C0
C0
C0
C0
00
00
C0
C0
ENDCHAR
STARTCHAR quotedbl
ENCODING 34
SWIDTH 424 0
DWIDTH 10 0
BBX 7 8 2 11
BITMAP
C4
CC
CC
CE
DC
DC
CC
8C
ENDCHAR
STARTCHAR numbersign
ENCODING 35
SWIDTH 842 0
DWIDTH 20 0
BBX 19 19 1 0
BITMAP
010100
030300
038300
070300
030300
3FFFC0
FFFFE0
060600
0C0C00
0C0C00
0C1C00
0C0C00
FFFFC0
FFFFC0
181800
303000
383000
307000
307000
ENDCHAR
STARTCHAR dollar
ENCODING 36
SWIDTH 693 0
DWIDTH 17 0
BBX 14 25 1 -4
BITMAP
0100
0300
0300
0300
0FE0
1FF8
1F00
7300
7300
7300
3F80
1FF0
03F0
03F8
031C
0318
031C
4338
7378
FFF0
3FC0
0300
0300
0300
0300
ENDCHAR
STARTCHAR percent
ENCODING 37
SWIDTH 820 0
DWIDTH 20 0
BBX 18 20 2 0
BITMAP
100000
3E1800
7F1C00
663000
C33800
7F3000
7C6000
006000
00C000
00C000
018000
018000
030400
033F00
0639C0
0E70C0
0C30C0
0E3980
0C1F80
181F80
ENDCHAR
STARTCHAR ampersand
ENCODING 38
SWIDTH 654 0
DWIDTH 16 0
BBX 13 20 2 -1
BITMAP
0300
0780
07C0
06C0
0DC0
0DC0
0780
0F00
1F00
3F10
6198
E1D8
C0F0
C0F0
C070
C070
C1F8
7FF8
7E18
0018
ENDCHAR
STARTCHAR quotesingle
ENCODING 39
SWIDTH 388 0
DWIDTH 9 0
BBX 2 6 4 14
BITMAP
80
C0
C0
C0
C0
C0
ENDCHAR
STARTCHAR parenleft
ENCODING 40
SWIDTH 366 0
DWIDTH 9 0
BBX 8 24 1 -5
BITMAP
06
0F
1C
1C
30
70
30
60
70
E0
60
60
60
60
60
E0
70
60
70
38
38
18
0C
06
ENDCHAR
STARTCHAR parenright
ENCODING 41
SWIDTH 366 0
DWIDTH 9 0
BBX 7 24 2 -5
BITMAP
C0
E0
E0
70
30
38
18
0C
0C
1C
0E
0E
0E
0E
1C
1C
0C
18
1C
38
70
60
C0
C0
ENDCHAR
STARTCHAR asterisk
ENCODING 42
SWIDTH 529 0
DWIDTH 13 0
BBX 10 9 2 10
BITMAP
0C00
0C00
8C40
FFC0
FFC0
1E00
3F00
7300
C180
ENDCHAR
STARTCHAR plus
ENCODING 43
SWIDTH 480 0
DWIDTH 12 0
BBX 10 10 2 3
BITMAP
0800
1800
1800
1800
FF00
FFC0
1800
1800
1800
1800
ENDCHAR
STARTCHAR comma
ENCODING 44
SWIDTH 276 0
DWIDTH 7 0
BBX 3 6 3 -4
BITMAP
60
E0
C0
C0
C0
C0
ENDCHAR
STARTCHAR hyphen
ENCODING 45
SWIDTH 416 0
DWIDTH 10 0
BBX 8 2 1 6
BITMAP
7E
FF
ENDCHAR
STARTCHAR period
ENCODING 46
SWIDTH 249 0
DWIDTH 6 0
BBX 3 3 2 -1
BITMAP
60
E0
60
ENDCHAR
STARTCHAR slash
ENCODING 47
SWIDTH 511 0
DWIDTH 12 0
BBX 11 20 1 -1
BITMAP
0060
00C0
00E0
00C0
0180
0180
0300
0700
0600
0E00
0C00
0C00
1800
3800
3000
7000
6000
E000
6000
6000
ENDCHAR
STARTCHAR zero
ENCODING 48
SWIDTH 610 0
DWIDTH 15 0
BBX 14 19 1 0
BITMAP
0100
0FE0
1FF0
3FF0
7038
7038
E018
6018
6018
6018
6018
6018
E01C
7038
6018
3070
3CF0
1FE0
0F80
ENDCHAR
STARTCHAR one
ENCODING 49
SWIDTH 450 0
DWIDTH 11 0
BBX 8 19 2 0
BITMAP
04
1C
3C
3C
7C
1C
0C
0C
0C
0C
18
18
18
18
18
18
7E
FF
3E
ENDCHAR
STARTCHAR two
ENCODING 50
SWIDTH 610 0
DWIDTH 15 0
BBX 12 18 2 0
BITMAP
1C00
3FC0
79E0
6070
0070
00E0
00E0
03C0
03C0
1F00
3E00
3800
7800
E000
6000
FFC0
7FF0
3060
ENDCHAR
STARTCHAR three
ENCODING 51
SWIDTH 610 0
DWIDTH 15 0
BBX 12 18 2 0
BITMAP
3C00
7F80
73E0
00E0
00E0
0060
03C0
0F80
1F00
07E0
00E0
0070
0060
4060
60E0
E0C0
3FC0
1F80
ENDCHAR
STARTCHAR four
ENCODING 52
SWIDTH 610 0
DWIDTH 15 0
BBX 13 19 2 0
BITMAP
0080
03C0
03C0
07C0
07E0
0EE0
1CE0
1CE0
38E0
70E0
E0E0
FFE0
FFF8
00E0
00E0
00E0
00E0
00E0
00C0
ENDCHAR
STARTCHAR five
ENCODING 53
SWIDTH 610 0
DWIDTH 15 0
BBX 12 19 2 0
BITMAP
0040
FFE0
FFE0
C000
C000
C000
E200
FFE0
FBC0
E0E0
C060
0060
0060
0070
00E0
80E0
E3C0
FFC0
3F00
ENDCHAR
STARTCHAR six
ENCODING 54
SWIDTH 610 0
DWIDTH 15 0
BBX 13 19 1 0
BITMAP
0100
0380
0F00
1E00
1C00
3800
3800
3200
7FC0
7FE0
F3F0
60F0
6070
6038
E070
7030
6070
3FE0
1FE0
ENDCHAR
STARTCHAR seven
ENCODING 55
SWIDTH 610 0
DWIDTH 15 0
BBX 13 18 2 0
BITMAP
FFF0
FFF8
0070
00E0
01C0
01C0
0380
0380
0700
0700
0E00
0E00
1C00
1C00
1C00
3800
3800
3800
ENDCHAR
STARTCHAR eight
ENCODING 56
SWIDTH 610 0
DWIDTH 15 0
BBX 12 18 1 0
BITMAP
0200
1FE0
7CE0
7070
6060
6060
70E0
3FE0
1F80
7FE0
70E0
7070
6070
6070
E070
7070
3FE0
3FC0
ENDCHAR
STARTCHAR nine
ENCODING 57
SWIDTH 610 0
DWIDTH 15 0
BBX 13 19 1 -1
BITMAP
0100
1FE0
7FF0
7070
6030
6018
6018
E030
7078
3FF8
1FF0
0060
0070
00E0
01C0
0F80
3F00
3C00
3C00
ENDCHAR
STARTCHAR colon
ENCODING 58
SWIDTH 298 0
DWIDTH 7 0
BBX 3 12 2 2
BITMAP
40
60
60
60
00
00
00
00
40
60
E0
E0
ENDCHAR
STARTCHAR semicolon
ENCODING 59
SWIDTH 298 0
DWIDTH 7 0
BBX 4 16 2 -2
BITMAP
20
60
70
60
00
00
00
00
00
00
00
20
E0
E0
C0
C0
ENDCHAR
STARTCHAR less
ENCODING 60
SWIDTH 381 0
DWIDTH 9 0
BBX 7 10 1 3
BITMAP
06
0E
1E
18
E0
E0
F0
30
1C
0C
ENDCHAR
STARTCHAR equal
ENCODING 61
SWIDTH 510 0
DWIDTH 12 0
BBX 9 8 2 4
BITMAP
7F00
FF80
0000
0000
0000
0000
7F00
FF80
ENDCHAR
STARTCHAR greater
ENCODING 62
SWIDTH 381 0
DWIDTH 9 0
BBX 9 11 1 3
BITMAP
2000
6000
3800
1C00
1F00
0700
0780
0F00
3C00
7800
E000
ENDCHAR
STARTCHAR question
ENCODING 63
SWIDTH 523 0
DWIDTH 13 0
BBX 11 18 1 0
BITMAP
0800
7F00
FF80
E7E0
00E0
00E0
00E0
00E0
01C0
03C0
0780
0700
1C00
1800
0000
1000
1800
3800
ENDCHAR
STARTCHAR at
ENCODING 64
SWIDTH 931 0
DWIDTH 22 0
BBX 20 21 1 -1
BITMAP
004000
03FE00
0FFF00
1FFF80
1C01E0
38E1E0
71E0E0
73F060
E7C060
E70860
671860
673870
67FFE0
E3FFC0
708F00
700000
380000
180000
0F0F00
0FFF00
01FC00
ENDCHAR
STARTCHAR A
ENCODING 65
SWIDTH 731 0
DWIDTH 18 0
BBX 15 18 2 0
BITMAP
0020
00E0
00F0
01E0
01F0
01F0
0738
0730
0E30
0E18
1FF8
3FF8
3818
380C
701C
700E
E00E
6006
ENDCHAR
STARTCHAR B
ENCODING 66
SWIDTH 630 0
DWIDTH 15 0
BBX 12 19 2 0
BITMAP
0400
7F80
7F80
70E0
70E0
7070
7070
E0E0
E0E0
7FC0
7F80
FFE0
63E0
60F0
6030
6070
61E0
7FE0
7F80
ENDCHAR
STARTCHAR C
ENCODING 67
SWIDTH 602 0
DWIDTH 14 0
BBX 14 18 1 0
BITMAP
01F0
03FC
07F8
0F1C
1C00
1C00
3800
7000
6000
E000
6000
6000
6000
7038
7078
3FF8
3FC0
0F00
ENDCHAR
STARTCHAR D
ENCODING 68
SWIDTH 721 0
DWIDTH 17 0
BBX 15 20 2 -1
BITMAP
2000
7000
FC00
FF80
67C0
E0F0
E070
E038
E01C
E01C
E00E
E00C
600C
601C
601C
601C
6038
FFF0
7FE0
0F00
ENDCHAR
STARTCHAR E
ENCODING 69
SWIDTH 624 0
DWIDTH 15 0
BBX 13 20 2 -1
BITMAP
47F0
FFF8
7CF8
7000
7000
7000
7000
E000
EFF0
FFF0
FF00
6000
6000
6000
6000
6000
E000
7FE0
7FF0
7FE0
ENDCHAR
STARTCHAR F
ENCODING 70
SWIDTH 606 0
DWIDTH 15 0
BBX 13 20 2 -1
BITMAP
4600
7FE0
7FF8
6000
6000
6000
6000
6200
FFC0
FFE0
FC00
6000
6000
6000
6000
6000
6000
6000
6000
6000
ENDCHAR
STARTCHAR G
ENCODING 71
SWIDTH 679 0
DWIDTH 16 0
BBX 16 19 1 0
BITMAP
0080
03F0
07FC
0E7C
1C00
1C00
3800
3800
6000
703E
E3FF
63FE
67FE
601C
601C
703C
6038
3FF0
3FC0
ENDCHAR
STARTCHAR H
ENCODING 72
SWIDTH 768 0
DWIDTH 18 0
BBX 16 19 2 0
BITMAP
2002
6003
6003
7006
7006
E006
E006
E006
E006
E3FE
7FFF
7F07
7007
E007
E006
6006
6006
6006
6006
ENDCHAR
STARTCHAR I
ENCODING 73
SWIDTH 546 0
DWIDTH 13 0
BBX 11 18 2 0
BITMAP
F000
FFC0
EFE0
1C00
0C00
0C00
0C00
0C00
0C00
0C00
0C00
0C00
0C00
0C00
0C00
1FC0
FFE0
FC00
ENDCHAR
STARTCHAR J
ENCODING 74
SWIDTH 665 0
DWIDTH 16 0
BBX 14 19 2 -1
BITMAP
0FE0
1FFC
0180
0180
0180
0180
0180
0180
0180
0180
0180
0180
81C0
C380
C180
F180
7F80
3F00
1E00
ENDCHAR
STARTCHAR K
ENCODING 75
SWIDTH 610 0
DWIDTH 15 0
BBX 13 19 2 -1
BITMAP
6030
E070
E1E0
E1E0
E380
6780
6E00
7C00
7C00
7800
7800
7C00
6E00
6780
63C0
63C0
60E0
6038
6000
ENDCHAR
STARTCHAR L
ENCODING 76
SWIDTH 550 0
DWIDTH 13 0
BBX 12 19 1 -1
BITMAP
6000
6000
6000
6000
6000
7000
7000
7000
7000
7000
E000
E000
E000
6000
6000
6010
FFF0
FFE0
7E00
ENDCHAR
STARTCHAR M
ENCODING 77
SWIDTH 882 0
DWIDTH 21 0
BBX 20 18 1 0
BITMAP
080200
0E0700
1E0780
1E0780
1E0780
1F0F80
1F0F80
3F0F80
3B9980
3B1D80
3998C0
73B0C0
71F9C0
71F0E0
70F0E0
E0F0E0
E0E0E0
60C070
ENDCHAR
STARTCHAR N
ENCODING 78
SWIDTH 796 0
DWIDTH 19 0
BBX 17 19 1 0
BITMAP
200000
700100
700380
780380
7C0380
FC0380
EE0380
E70380
E38380
E18380
E1C380
E0E380
E07380
E03B80
E01F80
E00F80
E00F80
E00380
600380
ENDCHAR
STARTCHAR O
ENCODING 79
SWIDTH 798 0
DWIDTH 19 0
BBX 18 18 1 0
BITMAP
004000
0FFE00
0FFE00
3C0380
380380
380380
7001C0
7001C0
E00380
600380
600180
600380
E00700
700600
381E00
3C3E00
1FFC00
07F000
ENDCHAR
STARTCHAR P
ENCODING 80
SWIDTH 520 0
DWIDTH 12 0
BBX 11 19 1 0
BITMAP
3800
7F80
7F80
70E0
7060
70E0
E060
6060
61C0
7FC0
7F80
7C00
6000
6000
6000
6000
6000
6000
6000
ENDCHAR
STARTCHAR Q
ENCODING 81
SWIDTH 876 0
DWIDTH 21 0
BBX 20 23 1 -5
BITMAP
002000
07FF00
0FFF80
1C0380
3801C0
7000E0
7000E0
E000E0
600070
600070
600070
E000E0
7040E0
7060E0
3839C0
3C3F80
1FFF00
07FF80
01FFC0
0001E0
0000F0
0000F0
000010
ENDCHAR
STARTCHAR R
ENCODING 82
SWIDTH 628 0
DWIDTH 15 0
BBX 14 18 1 0
BITMAP
7800
7F00
E7E0
70E0
70F0
7038
7030
E030
E070
60E0
7FE0
7F00
7F00
63E0
60F0
6078
E01C
E018
ENDCHAR
STARTCHAR S
ENCODING 83
SWIDTH 693 0
DWIDTH 17 0
BBX 14 18 3 0
BITMAP
0380
0FC0
1FF0
3800
7000
7000
7000
3F00
1FF0
03F0
0078
001C
001C
8038
C038
E078
FFE0
3FE0
ENDCHAR
STARTCHAR T
ENCODING 84
SWIDTH 679 0
DWIDTH 16 0
BBX 16 18 1 0
BITMAP
FFFE
7FFF
3FFF
0180
0180
0380
0380
01C0
01C0
0180
0180
0180
0180
0180
0180
0180
0180
0180
ENDCHAR
STARTCHAR U
ENCODING 85
SWIDTH 736 0
DWIDTH 18 0
BBX 15 18 2 0
BITMAP
4004
6006
6006
6006
6006
6006
6006
6006
6006
600C
600C
E00E
700C
701C
3838
3C38
1FF0
07E0
ENDCHAR
STARTCHAR V
ENCODING 86
SWIDTH 649 0
DWIDTH 16 0
BBX 14 18 2 0
BITMAP
400C
E01C
E03C
6038
3030
7038
3870
3070
18E0
38E0
1CE0
19C0
1DC0
0FC0
0F80
0780
0780
0600
ENDCHAR
STARTCHAR W
ENCODING 87
SWIDTH 1039 0
DWIDTH 25 0
BBX 22 19 3 -1
BITMAP
802008
C0701C
E0781C
60781C
E0F838
70F818
30F838
31D830
39D860
339870
1B8C60
1B9CC0
3F0EC0
1F0D80
1E0DC0
0E0780
0E0780
0E0700
000300
ENDCHAR
STARTCHAR X
ENCODING 88
SWIDTH 723 0
DWIDTH 17 0
BBX 16 18 2 0
BITMAP
8006
E00F
701E
3838
1C38
0E70
0EE0
07E0
03C0
03C0
07E0
0EE0
1C70
3830
7038
701C
E01E
C00E
ENDCHAR
STARTCHAR Y
ENCODING 89
SWIDTH 635 0
DWIDTH 15 0
BBX 14 18 0 0
BITMAP
6004
E00C
701C
381C
3838
1C38
0E70
0C70
0EE0
07E0
03E0
01C0
01C0
0380
0380
0300
0700
0600
ENDCHAR
STARTCHAR Z
ENCODING 90
SWIDTH 693 0
DWIDTH 17 0
BBX 15 18 2 0
BITMAP
7FF0
FFFE
003C
0078
00F0
01C0
0380
0380
0700
0E00
1C00
1C00
3800
7000
7000
E000
FFFC
FFFE
ENDCHAR
STARTCHAR bracketleft
ENCODING 91
SWIDTH 376 0
DWIDTH 9 0
BBX 7 22 2 -4
BITMAP
7C
FC
60
60
60
60
60
60
60
60
60
60
60
60
60
60
60
60
60
60
FC
7E
ENDCHAR
STARTCHAR backslash
ENCODING 92
SWIDTH 549 0
DWIDTH 13 0
BBX 10 19 2 -1
BITMAP
6000
E000
7000
3800
1800
1C00
1800
1C00
0C00
0600
0700
0600
0300
0300
0180
01C0
01C0
01C0
00C0
ENDCHAR
STARTCHAR bracketright
ENCODING 93
SWIDTH 376 0
DWIDTH 9 0
BBX 6 22 3 -4
BITMAP
78
FC
18
18
18
18
18
18
18
18
18
18
18
18
18
0C
0C
0C
0C
0C
FC
FC
ENDCHAR
STARTCHAR asciicircum
ENCODING 94
SWIDTH 581 0
DWIDTH 14 0
BBX 9 6 3 14
BITMAP
0800
3C00
7E00
7F00
E380
C180
ENDCHAR
STARTCHAR underscore
ENCODING 95
SWIDTH 626 0
DWIDTH 15 0
BBX 17 3 0 -4
BITMAP
FFFF00
FFFF00
803F80
ENDCHAR
STARTCHAR grave
ENCODING 96
SWIDTH 556 0
DWIDTH 13 0
BBX 5 6 2 14
BITMAP
40
E0
70
38
18
18
ENDCHAR
STARTCHAR a
ENCODING 97
SWIDTH 511 0
DWIDTH 12 0
BBX 12 13 1 0
BITMAP
0700
1F80
3EE0
7060
70C0
E0C0
60C0
60C0
60C0
E060
60E0
7FE0
3FF0
ENDCHAR
STARTCHAR b
ENCODING 98
SWIDTH 593 0
DWIDTH 14 0
BBX 12 19 2 0
BITMAP
4000
6000
6000
6000
6000
6000
6200
67C0
FFC0
F0E0
6070
6030
6030
6030
6060
60E0
6060
FFC0
FF00
ENDCHAR
STARTCHAR c
ENCODING 99
SWIDTH 513 0
DWIDTH 12 0
BBX 11 13 1 0
BITMAP
0E00
1F00
3FC0
3000
6000
E000
6000
6000
6000
E000
70E0
3FE0
3F80
ENDCHAR
STARTCHAR d
ENCODING 100
SWIDTH 587 0
DWIDTH 14 0
BBX 11 19 2 0
BITMAP
0020
0060
00E0
00E0
0060
0060
1C60
3FE0
7BE0
C1C0
E0C0
C0C0
C0C0
C0C0
C060
E060
61E0
7FE0
1FE0
ENDCHAR
STARTCHAR e
ENCODING 101
SWIDTH 547 0
DWIDTH 13 0
BBX 11 13 2 0
BITMAP
1C00
3F80
7FC0
60C0
E380
DF00
FF00
F800
E000
C020
E060
7FC0
7F80
ENDCHAR
STARTCHAR f
ENCODING 102
SWIDTH 508 0
DWIDTH 12 0
BBX 10 20 1 -1
BITMAP
0080
07C0
0F80
0C00
0E00
0C00
0C00
1F80
FFC0
0C00
0C00
0C00
0C00
0C00
0C00
0C00
0C00
0C00
0C00
1800
ENDCHAR
STARTCHAR g
ENCODING 103
SWIDTH 530 0
DWIDTH 13 0
BBX 12 18 1 -6
BITMAP
0F80
3FC0
3060
7060
E060
6070
60E0
60E0
E0E0
60E0
7F60
1E60
0060
00C0
00C0
01C0
7F80
7F80
ENDCHAR
STARTCHAR h
ENCODING 104
SWIDTH 577 0
DWIDTH 14 0
BBX 12 19 2 0
BITMAP
4000
6000
E000
7000
E000
E000
E100
6FC0
FFC0
7FE0
7860
7060
7060
E060
E060
E060
60E0
6070
6060
ENDCHAR
STARTCHAR i
ENCODING 105
SWIDTH 280 0
DWIDTH 7 0
BBX 4 18 2 0
BITMAP
60
70
60
00
00
00
60
E0
60
60
60
60
60
60
60
60
60
60
ENDCHAR
STARTCHAR j
ENCODING 106
SWIDTH 403 0
DWIDTH 10 0
BBX 9 24 0 -6
BITMAP
0600
0700
0600
0000
0000
0200
0300
0300
0300
0300
0300
0300
0700
0700
0700
0700
0380
0380
0300
4300
E300
7700
3F00
3E00
ENDCHAR
STARTCHAR k
ENCODING 107
SWIDTH 540 0
DWIDTH 13 0
BBX 12 19 2 0
BITMAP
6000
E000
E000
7000
7000
E000
E0C0
E1C0
E3C0
E300
EE00
FE00
7F00
FB80
6380
6180
61C0
60E0
6070
ENDCHAR
STARTCHAR l
ENCODING 108
SWIDTH 273 0
DWIDTH 7 0
BBX 4 19 2 0
BITMAP
20
70
70
E0
E0
E0
E0
E0
E0
E0
E0
60
60
60
60
60
60
60
60
ENDCHAR
STARTCHAR m
ENCODING 109
SWIDTH 776 0
DWIDTH 19 0
BBX 17 14 1 -1
BITMAP
220800
679E00
6FFF00
F9EE00
F18700
718300
E18300
618700
618380
618380
60C300
60C300
E0C180
00C000
ENDCHAR
STARTCHAR n
ENCODING 110
SWIDTH 523 0
DWIDTH 13 0
BBX 11 13 1 0
BITMAP
4100
EFC0
FFC0
F8E0
78C0
70C0
E0C0
60C0
60C0
60C0
60C0
6060
6060
ENDCHAR
STARTCHAR o
ENCODING 111
SWIDTH 525 0
DWIDTH 13 0
BBX 11 13 1 0
BITMAP
0200
1F80
3FC0
3FC0
7060
E060
6060
6060
6060
70E0
60C0
3FC0
3F00
ENDCHAR
STARTCHAR p
ENCODING 112
SWIDTH 534 0
DWIDTH 13 0
BBX 11 19 1 -6
BITMAP
6200
6F80
7FC0
7BC0
E0E0
6060
E060
E060
E060
E0E0
E3C0
7FC0
7F00
E000
E000
E000
E000
E000
E000
ENDCHAR
STARTCHAR q
ENCODING 113
SWIDTH 520 0
DWIDTH 12 0
BBX 11 19 1 -6
BITMAP
0740
1FE0
3E60
7060
7060
E060
6060
60C0
60C0
70E0
60E0
3FC0
3FC0
00C0
00C0
00C0
0180
0180
0180
ENDCHAR
STARTCHAR r
ENCODING 114
SWIDTH 480 0
DWIDTH 12 0
BBX 9 13 2 0
BITMAP
4700
7F80
FF80
F180
E180
6000
6000
6000
6000
6000
6000
6000
6000
ENDCHAR
STARTCHAR s
ENCODING 115
SWIDTH 486 0
DWIDTH 12 0
BBX 10 14 1 0
BITMAP
0180
07C0
3FC0
7FC0
7980
6000
7000
7E00
0780
0380
0180
C180
FF80
7F00
ENDCHAR
STARTCHAR t
ENCODING 116
SWIDTH 471 0
DWIDTH 11 0
BBX 10 17 1 0
BITMAP
0400
0E00
0C00
0C00
3FC0
FFC0
7FC0
0C00
0C00
0C00
0C00
0C00
0C00
0600
0600
0600
0C00
ENDCHAR
STARTCHAR u
ENCODING 117
SWIDTH 520 0
DWIDTH 12 0
BBX 10 13 1 0
BITMAP
2040
E0C0
E0C0
60C0
60C0
60C0
60C0
60C0
60C0
E0C0
70C0
7FC0
3FC0
ENDCHAR
STARTCHAR v
ENCODING 118
SWIDTH 486 0
DWIDTH 12 0
BBX 10 13 2 0
BITMAP
8080
C1C0
E0C0
C1C0
E180
6300
3700
7300
3700
1E00
1E00
1C00
0C00
ENDCHAR
STARTCHAR w
ENCODING 119
SWIDTH 684 0
DWIDTH 16 0
BBX 15 13 1 0
BITMAP
4102
6386
638E
E386
73CC
76CC
66DC
66CC
3CD8
3CD8
3C78
3878
3870
ENDCHAR
STARTCHAR x
ENCODING 120
SWIDTH 590 0
DWIDTH 14 0
BBX 12 13 2 0
BITMAP
4030
7070
70F0
3BC0
1F80
0F00
0F00
1F80
7F80
71C0
70E0
C0E0
0060
ENDCHAR
STARTCHAR y
ENCODING 121
SWIDTH 520 0
DWIDTH 12 0
BBX 11 19 1 -6
BITMAP
8020
C060
E0E0
E0E0
71C0
71C0
39C0
3B80
1F80
0F00
0E00
0E00
0E00
1C00
1C00
1C00
3800
3000
3800
ENDCHAR
STARTCHAR z
ENCODING 122
SWIDTH 538 0
DWIDTH 13 0
BBX 11 13 2 0
BITMAP
7FC0
FFE0
7FC0
01C0
0700
0700
0E00
0E00
1C00
3800
7000
FFC0
FFC0
ENDCHAR
STARTCHAR braceleft
ENCODING 123
SWIDTH 366 0
DWIDTH 9 0
BBX 9 23 0 -4
BITMAP
0F00
1F00
1E00
1800
1800
1800
1800
1800
3800
3800
1800
3800
E000
7000
1800
1800
1800
1800
1800
1C00
1C00
0F00
0780
ENDCHAR
STARTCHAR bar
ENCODING 124
SWIDTH 421 0
DWIDTH 10 0
BBX 3 25 4 -4
BITMAP
40
60
60
60
60
60
60
60
60
60
60
60
60
60
60
60
60
60
60
60
60
60
60
60
C0
ENDCHAR
STARTCHAR braceright
ENCODING 125
SWIDTH 366 0
DWIDTH 9 0
BBX 9 23 0 -4
BITMAP
7000
7C00
3C00
0C00
0C00
0C00
0C00
0C00
0E00
0E00
0C00
0700
0380
0700
0C00
0C00
0C00
0C00
0C00
0E00
1C00
7800
F000
ENDCHAR
STARTCHAR asciitilde
ENCODING 126
SWIDTH 597 0
DWIDTH 14 0
BBX 12 5 2 6
BITMAP
0C20
7C30
FE60
C7E0
03E0
ENDCHAR
STARTCHAR exclamdown
ENCODING 161
SWIDTH 237 0
DWIDTH 6 0
BBX 2 19 2 0
BITMAP
C0
C0
00
00
80
C0
C0
C0
C0
C0
C0
C0
C0
C0
C0
C0
C0
C0
C0
ENDCHAR
STARTCHAR cent
ENCODING 162
SWIDTH 623 0
DWIDTH 15 0
BBX 12 20 1 1
BITMAP
0200
0600
0600
0620
0FF0
3FE0
3F70
6600
7600
6600
C600
6600
6610
6630
7670
3FE0
0FC0
0600
0600
0600
ENDCHAR
STARTCHAR sterling
ENCODING 163
SWIDTH 793 0
DWIDTH 19 0
BBX 16 20 1 -1
BITMAP
01C0
07F8
0F9C
0C06
1C00
1800
1800
1800
FFF8
FFF8
1C00
1800
0C00
0C00
0C00
0C01
1803
1F03
3FFF
37FC
ENDCHAR
STARTCHAR currency
ENCODING 164
SWIDTH 611 0
DWIDTH 15 0
BBX 13 13 2 3
BITMAP
8000
C008
F078
3FF8
3FC0
38C0
30E0
70E0
39C0
7F80
EFE0
E0E0
C070
ENDCHAR
STARTCHAR yen
ENCODING 165
SWIDTH 635 0
DWIDTH 15 0
BBX 13 18 2 0
BITMAP
4000
C018
6038
3030
3060
1860
19C0
3DE0
7FF0
0780
0300
1FE0
3FE0
0300
0300
0300
0300
0300
ENDCHAR
STARTCHAR brokenbar
ENCODING 166
SWIDTH 404 0
DWIDTH 10 0
BBX 3 20 4 0
BITMAP
40
C0
C0
C0
C0
C0
C0
C0
C0
00
00
40
C0
C0
C0
C0
C0
60
60
60
ENDCHAR
STARTCHAR section
ENCODING 167
SWIDTH 634 0
DWIDTH 15 0
BBX 11 20 2 0
BITMAP
0200
1FC0
3FE0
70E0
6000
7000
3C00
7F00
6780
C1E0
E060
7060
3C60
07C0
01E0
4060
C060
E060
78E0
7F80
ENDCHAR
STARTCHAR dieresis
ENCODING 168
SWIDTH 556 0
DWIDTH 13 0
BBX 10 3 3 14
BITMAP
4080
E1C0
6180
ENDCHAR
STARTCHAR copyright
ENCODING 169
SWIDTH 795 0
DWIDTH 19 0
BBX 16 16 2 3
BITMAP
0080
1FFC
3FFC
7046
67C3
EF83
DC03
D803
DC67
CFE3
CFC7
C006
E01C
3FFC
1FF0
0380
ENDCHAR
STARTCHAR ordfeminine
ENCODING 170
SWIDTH 526 0
DWIDTH 13 0
BBX 10 9 1 11
BITMAP
0700
7F80
79C0
71C0
61C0
E3C0
6FC0
3FC0
1CC0
ENDCHAR
STARTCHAR guillemotleft
ENCODING 171
SWIDTH 577 0
DWIDTH 14 0
BBX 12 10 1 3
BITMAP
0620
0E70
1EE0
18E0
E3C0
E700
FF00
33C0
1CF0
0C70
ENDCHAR
STARTCHAR logicalnot
ENCODING 172
SWIDTH 480 0
DWIDTH 12 0
BBX 10 6 2 3
BITMAP
FF80
FFC0
0180
0180
0180
0180
ENDCHAR
STARTCHAR uni00AD
ENCODING 173
SWIDTH 416 0
DWIDTH 10 0
BBX 8 2 1 6
BITMAP
7E
FF
ENDCHAR
STARTCHAR registered
ENCODING 174
SWIDTH 795 0
DWIDTH 19 0
BBX 18 17 1 3
BITMAP
002000
07FC00
1FFE00
1FFF00
3BE380
67F980
E61980
663980
67F180
67C180
67E1C0
6CE180
7C7380
700700
301E00
1FFE00
07F000
ENDCHAR
STARTCHAR macron
ENCODING 175
SWIDTH 626 0
DWIDTH 15 0
BBX 17 3 0 20
BITMAP
7FC180
FFFF00
FFFF00
ENDCHAR
STARTCHAR degree
ENCODING 176
SWIDTH 409 0
DWIDTH 10 0
BBX 9 8 1 12
BITMAP
0800
3F00
6300
C180
C180
6300
7F00
7E00
ENDCHAR
STARTCHAR plusminus
ENCODING 177
SWIDTH 480 0
DWIDTH 12 0
BBX 10 14 2 -1
BITMAP
0800
1800
1800
1800
FF00
FFC0
1800
1800
1800
1800
0000
0000
7F00
FFC0
ENDCHAR
STARTCHAR uni00B2
ENCODING 178
SWIDTH 650 0
DWIDTH 16 0
BBX 8 10 4 11
BITMAP
08
7C
66
66
0E
3C
38
78
FE
7F
ENDCHAR
STARTCHAR uni00B3
ENCODING 179
SWIDTH 650 0
DWIDTH 16 0
BBX 7 10 5 10
BITMAP
78
7C
0C
1C
3C
0C
06
46
FC
38
ENDCHAR
STARTCHAR acute
ENCODING 180
SWIDTH 556 0
DWIDTH 13 0
BBX 5 6 3 14
BITMAP
10
38
70
E0
E0
C0
ENDCHAR
STARTCHAR mu
ENCODING 181
SWIDTH 520 0
DWIDTH 12 0
BBX 13 17 1 -4
BITMAP
0808
1838
3830
3830
3070
3030
7030
3060
3070
30E0
3060
7FE0
FFC0
6000
C000
C000
C000
ENDCHAR
STARTCHAR paragraph
ENCODING 182
SWIDTH 693 0
DWIDTH 17 0
BBX 14 22 2 -2
BITMAP
0068
0FEC
1FDC
3FDC
70CC
E0CC
C0CC
C0CC
C0CC
C0CC
C0CC
E0D8
E0D8
3FD8
3FD8
0198
01F0
03B0
01B8
01B0
0330
0330
ENDCHAR
STARTCHAR periodcentered
ENCODING 183
SWIDTH 249 0
DWIDTH 6 0
BBX 3 3 2 7
BITMAP
60
E0
60
ENDCHAR
STARTCHAR cedilla
ENCODING 184
SWIDTH 556 0
DWIDTH 13 0
BBX 5 7 5 -5
BITMAP
40
F0
78
38
98
F8
78
ENDCHAR
STARTCHAR uni00B9
ENCODING 185
SWIDTH 650 0
DWIDTH 16 0
BBX 6 10 6 11
BITMAP
20
30
E0
F0
30
30
30
30
FC
FC
ENDCHAR
STARTCHAR ordmasculine
ENCODING 186
SWIDTH 449 0
DWIDTH 11 0
BBX 10 9 0 11
BITMAP
0400
3F00
7FC0
71C0
61C0
E1C0
71C0
7F80
3F80
ENDCHAR
STARTCHAR guillemotright
ENCODING 187
SWIDTH 577 0
DWIDTH 14 0
BBX 13 10 0 3
BITMAP
4200
C380
F380
30C0
1CF0
0E78
0EF0
3EC0
71C0
7300
ENDCHAR
STARTCHAR onequarter
ENCODING 188
SWIDTH 650 0
DWIDTH 16 0
BBX 12 24 3 -3
BITMAP
0400
0C00
1C00
3C00
0600
0600
0600
0600
3F00
1F80
0000
0000
FFE0
FFF0
0000
0600
0E00
1E00
3E00
3600
7F00
7FC0
0600
0600
ENDCHAR
STARTCHAR onehalf
ENCODING 189
SWIDTH 650 0
DWIDTH 16 0
BBX 12 25 3 -4
BITMAP
0400
0C00
1C00
3C00
0600
0600
0600
0600
3F00
1F80
0000
0000
FFE0
FFF0
0000
0400
1E00
3300
0180
0700
0F00
1C00
3000
3F80
3F80
ENDCHAR
STARTCHAR threequarters
ENCODING 190
SWIDTH 650 0
DWIDTH 16 0
BBX 12 23 3 -3
BITMAP
1E00
1F00
0300
0700
0F00
0300
0180
1180
3F00
0E00
0000
FFE0
FFF0
0000
0600
0E00
1E00
1E00
3600
3F00
7FC0
0600
0600
ENDCHAR
STARTCHAR questiondown
ENCODING 191
SWIDTH 523 0
DWIDTH 13 0
BBX 11 18 1 0
BITMAP
0080
0180
0380
0000
0000
0300
0780
1F00
3C00
3800
7800
E000
6000
E000
7040
7060
3FE0
3F80
ENDCHAR
STARTCHAR Agrave
ENCODING 192
SWIDTH 731 0
DWIDTH 18 0
BBX 15 25 2 0
BITMAP
0100
03C0
01C0
0070
0030
0000
0000
0020
00E0
00F0
01E0
01F0
01F0
0738
0730
0E30
0E18
1FF8
3FF8
3818
380C
701C
700E
E00E
6006
ENDCHAR
STARTCHAR Aacute
ENCODING 193
SWIDTH 731 0
DWIDTH 18 0
BBX 15 25 2 0
BITMAP
001C
003C
003C
0070
0070
0000
0000
0020
00E0
00F0
01E0
01F0
01F0
0738
0730
0E30
0E18
1FF8
3FF8
3818
380C
701C
700E
E00E
6006
ENDCHAR
STARTCHAR Acircumflex
ENCODING 194
SWIDTH 731 0
DWIDTH 18 0
BBX 15 25 2 0
BITMAP
0040
00E0
01F8
03FC
070E
0606
0000
0020
00E0
00F0
01E0
01F0
01F0
0738
0730
0E30
0E18
1FF8
3FF8
3818
380C
701C
700E
E00E
6006
ENDCHAR
STARTCHAR Atilde
ENCODING 195
SWIDTH 731 0
DWIDTH 18 0
BBX 16 24 2 0
BITMAP
0082
03E3
06E6
063E
0000
0000
0020
00E0
00F0
01E0
01F0
01F0
0738
0730
0E30
0E18
1FF8
3FF8
3818
380C
701C
700E
E00E
6006
ENDCHAR
STARTCHAR Adieresis
ENCODING 196
SWIDTH 731 0
DWIDTH 18 0
BBX 15 22 2 0
BITMAP
0108
038E
0000
0000
0020
00E0
00F0
01E0
01F0
01F0
0738
0730
0E30
0E18
1FF8
3FF8
3818
380C
701C
700E
E00E
6006
ENDCHAR
STARTCHAR Aring
ENCODING 197
SWIDTH 731 0
DWIDTH 18 0
BBX 15 24 2 0
BITMAP
0020
01F8
01FC
030C
030C
01FC
01F8
00E0
00F0
01E0
01F0
01F0
0738
0730
0E30
0E18
1FF8
3FF8
3818
380C
701C
700E
E00E
6006
ENDCHAR
STARTCHAR AE
ENCODING 198
SWIDTH 1086 0
DWIDTH 26 0
BBX 25 20 2 -1
BITMAP
000FFF00
001FFF80
003F8F80
007E0000
00EE0000
00EE0000
01CE0000
03860000
0707FF00
0FFFFF00
0FFFC000
1E060000
380C0000
380C0000
700C0000
E0060000
E0060000
C007FE00
0007FF00
00001E00
ENDCHAR
STARTCHAR Ccedilla
ENCODING 199
SWIDTH 602 0
DWIDTH 14 0
BBX 14 22 1 -4
BITMAP
01F0
03FC
07F8
0F1C
1C00
1C00
3800
7000
6000
E000
6000
6000
6000
7008
7018
7FF0
1FE0
0F00
0700
0180
1780
3E00
ENDCHAR
STARTCHAR Egrave
ENCODING 200
SWIDTH 624 0
DWIDTH 15 0
BBX 13 28 2 -1
BITMAP
0200
0600
0700
0380
01C0
00C0
0000
0000
47F0
FFF8
7CF8
7000
7000
7000
7000
E000
EFF0
FFF0
FF00
6000
6000
6000
6000
6000
E000
7FE0
7FF0
7FE0
ENDCHAR
STARTCHAR Eacute
ENCODING 201
SWIDTH 624 0
DWIDTH 15 0
BBX 13 28 2 -1
BITMAP
0020
0030
00E0
01C0
01C0
0300
0000
0000
47F0
FFF8
7CF8
7000
7000
7000
7000
E000
EFF0
FFF0
FF00
6000
6000
6000
6000
6000
E000
7FE0
7FF0
7FE0
ENDCHAR
STARTCHAR Ecircumflex
ENCODING 202
SWIDTH 624 0
DWIDTH 15 0
BBX 13 28 2 -1
BITMAP
0100
03C0
07E0
0FF0
1C38
1818
0000
0000
47F0
FFF8
7CF8
7000
7000
7000
7000
E000
EFF0
FFF0
FF00
6000
6000
6000
6000
6000
E000
7FE0
7FF0
7FE0
ENDCHAR
STARTCHAR Edieresis
ENCODING 203
SWIDTH 624 0
DWIDTH 15 0
BBX 13 24 2 -1
BITMAP
0830
0E70
0000
0000
47F0
FFF8
7CF8
7000
7000
7000
7000
E000
EFF0
FFF0
FF00
6000
6000
6000
6000
6000
E000
7FE0
7FF0
7FE0
ENDCHAR
STARTCHAR Igrave
ENCODING 204
SWIDTH 546 0
DWIDTH 13 0
BBX 11 26 2 0
BITMAP
1000
3800
1C00
0E00
0700
0600
0000
0000
F000
FFC0
EFE0
1C00
0C00
0C00
0C00
0C00
0C00
0C00
0C00
0C00
0C00
0C00
0C00
1FC0
FFE0
FC00
ENDCHAR
STARTCHAR Iacute
ENCODING 205
SWIDTH 546 0
DWIDTH 13 0
BBX 11 25 2 0
BITMAP
0100
0380
0700
0E00
0C00
0000
0000
F000
FFC0
EFE0
1C00
0C00
0C00
0C00
0C00
0C00
0C00
0C00
0C00
0C00
0C00
0C00
1FC0
FFE0
FC00
ENDCHAR
STARTCHAR Icircumflex
ENCODING 206
SWIDTH 546 0
DWIDTH 13 0
BBX 11 26 2 0
BITMAP
0800
0E00
1F80
3F80
71C0
60C0
0000
0000
F000
FFC0
EFE0
1C00
0C00
0C00
0C00
0C00
0C00
0C00
0C00
0C00
0C00
0C00
0C00
1FC0
FFE0
FC00
ENDCHAR
STARTCHAR Idieresis
ENCODING 207
SWIDTH 546 0
DWIDTH 13 0
BBX 11 22 2 0
BITMAP
20C0
71C0
0000
0000
F000
FFC0
EFE0
1C00
0C00
0C00
0C00
0C00
0C00
0C00
0C00
0C00
0C00
0C00
0C00
1FC0
FFE0
FC00
ENDCHAR
STARTCHAR Eth
ENCODING 208
SWIDTH 721 0
DWIDTH 17 0
BBX 16 20 0 -1
BITMAP
1000
1C00
3E00
3FC0
31F0
30F8
181C
180E
180E
7F03
FF83
7F87
3007
3003
3007
300E
301C
3FFC
1FF8
0780
ENDCHAR
STARTCHAR Ntilde
ENCODING 209
SWIDTH 796 0
DWIDTH 19 0
BBX 17 24 1 0
BITMAP
020800
0F8C00
18FC00
187800
000000
200000
700100
700380
780380
7C0380
FC0380
EE0380
E70380
E38380
E18380
E1C380
E0E380
E07380
E03B80
E01F80
E00F80
E00F80
E00380
600380
ENDCHAR
STARTCHAR Ograve
ENCODING 210
SWIDTH 798 0
DWIDTH 19 0
BBX 18 25 1 0
BITMAP
004000
007000
007000
003800
001800
000000
000000
004000
0FFE00
0FFE00
3C0380
380380
380380
7001C0
7001C0
E00380
600380
600180
600380
E00700
700600
381E00
3C3E00
1FFC00
07F000
ENDCHAR
STARTCHAR Oacute
ENCODING 211
SWIDTH 798 0
DWIDTH 19 0
BBX 18 25 1 0
BITMAP
000600
000E00
001C00
003800
003000
000000
000000
004000
0FFE00
0FFE00
3C0380
380380
380380
7001C0
7001C0
E00380
600380
600180
600380
E00700
700600
381E00
3C3E00
1FFC00
07F000
ENDCHAR
STARTCHAR Ocircumflex
ENCODING 212
SWIDTH 798 0
DWIDTH 19 0
BBX 18 25 1 0
BITMAP
007000
00F800
00FE00
01CE00
030600
020000
000000
004000
0FFE00
0FFE00
3C0380
380380
380380
7001C0
7001C0
E00380
600380
600180
600380
E00700
700600
381E00
3C3E00
1FFC00
07F000
ENDCHAR
STARTCHAR Otilde
ENCODING 213
SWIDTH 798 0
DWIDTH 19 0
BBX 18 24 1 0
BITMAP
008100
03E300
063300
063E00
000000
000000
004000
0FFE00
0FFE00
3C0380
380380
380380
7001C0
7001C0
E00380
600380
600180
600380
E00700
700600
381E00
3C3E00
1FFC00
07F000
ENDCHAR
STARTCHAR Odieresis
ENCODING 214
SWIDTH 798 0
DWIDTH 19 0
BBX 18 22 1 0
BITMAP
020C00
038E00
000000
000000
004000
0FFE00
0FFE00
3C0380
380380
380380
7001C0
7001C0
E00380
600380
600180
600380
E00700
700600
381E00
3C3E00
1FFC00
07F000
ENDCHAR
STARTCHAR multiply
ENCODING 215
SWIDTH 480 0
DWIDTH 12 0
BBX 9 9 2 3
BITMAP
8300
E380
FE00
7C00
1C00
3E00
7E00
E700
6100
ENDCHAR
STARTCHAR Oslash
ENCODING 216
SWIDTH 798 0
DWIDTH 19 0
BBX 17 19 2 -1
BITMAP
03C080
0FFF80
1FFF00
1C0F00
381F00
703F80
707180
E0E180
C1C180
C38300
C38380
C70700
CE0700
7C0E00
781E00
703E00
7FF800
CFE000
C00000
ENDCHAR
STARTCHAR Ugrave
ENCODING 217
SWIDTH 736 0
DWIDTH 18 0
BBX 15 25 2 0
BITMAP
0400
0700
0700
0380
0180
0000
0000
4004
6006
6006
6006
6006
6006
6006
6006
6006
600C
600C
E00E
700C
701C
3838
3C38
1FF0
07E0
ENDCHAR
STARTCHAR Uacute
ENCODING 218
SWIDTH 736 0
DWIDTH 18 0
BBX 15 25 2 0
BITMAP
0020
0070
00E0
01C0
0180
0000
0000
4004
6006
6006
6006
6006
6006
6006
6006
6006
600C
600C
E00E
700C
701C
3838
3C38
1FF0
07E0
ENDCHAR
STARTCHAR Ucircumflex
ENCODING 219
SWIDTH 736 0
DWIDTH 18 0
BBX 15 26 2 0
BITMAP
0080
00C0
03E0
0770
0E38
1C1C
0800
0000
4004
6006
6006
6006
6006
6006
6006
6006
6006
600C
600C
E00E
700C
701C
3838
3C38
1FF0
07E0
ENDCHAR
STARTCHAR Udieresis
ENCODING 220
SWIDTH 736 0
DWIDTH 18 0
BBX 15 22 2 0
BITMAP
0430
0E38
0000
0000
4004
6006
6006
6006
6006
6006
6006
6006
6006
600C
600C
E00E
700C
701C
3838
3C38
1FF0
07E0
ENDCHAR
STARTCHAR Yacute
ENCODING 221
SWIDTH 635 0
DWIDTH 15 0
BBX 14 26 0 0
BITMAP
0030
0078
00F0
01C0
01C0
0000
0000
0000
6004
E00C
701C
381C
3838
1C38
0E70
0C70
0EE0
07E0
03E0
01C0
01C0
0380
0380
0300
0700
0600
ENDCHAR
STARTCHAR Thorn
ENCODING 222
SWIDTH 520 0
DWIDTH 12 0
BBX 12 19 1 0
BITMAP
2000
6000
7000
7C00
7F80
77E0
E0E0
6070
6070
6060
60E0
61C0
FF80
7F80
6000
6000
6000
6000
6000
ENDCHAR
STARTCHAR germandbls
ENCODING 223
SWIDTH 443 0
DWIDTH 11 0
BBX 11 20 1 -1
BITMAP
0400
1F80
3F80
31C0
30C0
60C0
71C0
E380
6700
6E00
6380
61C0
6180
60E0
60C0
60C0
68E0
6FC0
6F80
6000
ENDCHAR
STARTCHAR agrave
ENCODING 224
SWIDTH 511 0
DWIDTH 12 0
BBX 12 20 1 0
BITMAP
0800
1C00
0E00
0700
0380
0300
0000
0700
1F80
3EE0
7060
70C0
E0C0
60C0
60C0
60C0
E060
60E0
7FE0
3FF0
ENDCHAR
STARTCHAR aacute
ENCODING 225
SWIDTH 511 0
DWIDTH 12 0
BBX 12 20 1 0
BITMAP
0040
00E0
01C0
0380
0380
0300
0000
0700
1F80
3EE0
7060
70C0
E0C0
60C0
60C0
60C0
E060
60E0
7FE0
3FF0
ENDCHAR
STARTCHAR acircumflex
ENCODING 226
SWIDTH 511 0
DWIDTH 12 0
BBX 12 20 1 0
BITMAP
0300
0F80
1DC0
38E0
3870
3020
0000
0700
1F80
3EE0
7060
70C0
E0C0
60C0
60C0
60C0
E060
60E0
7FE0
3FF0
ENDCHAR
STARTCHAR atilde
ENCODING 227
SWIDTH 511 0
DWIDTH 12 0
BBX 13 18 1 0
BITMAP
1E20
7738
63F0
01E0
0000
0700
1F80
3EE0
7060
70C0
E0C0
60C0
60C0
60C0
E060
60E0
7FE0
3FF0
ENDCHAR
STARTCHAR adieresis
ENCODING 228
SWIDTH 511 0
DWIDTH 12 0
BBX 12 17 1 0
BITMAP
1020
3870
18C0
0000
0700
1F80
3EE0
7060
70C0
E0C0
60C0
60C0
60C0
E060
60E0
7FE0
3FF0
ENDCHAR
STARTCHAR aring
ENCODING 229
SWIDTH 511 0
DWIDTH 12 0
BBX 12 21 1 0
BITMAP
0100
0FC0
1E60
1860
1860
1FC0
0FC0
0000
0700
1F80
3EE0
7060
70C0
E0C0
60C0
60C0
60C0
E060
60E0
7FE0
3FF0
ENDCHAR
STARTCHAR ae
ENCODING 230
SWIDTH 911 0
DWIDTH 22 0
BBX 21 13 1 0
BITMAP
070200
1FC7C0
3E7FF0
387830
7070F0
E07FE0
60FFC0
60FC00
60F000
707010
307818
3FFFF0
1FFFC0
ENDCHAR
STARTCHAR ccedilla
ENCODING 231
SWIDTH 513 0
DWIDTH 12 0
BBX 11 18 1 -5
BITMAP
0E00
1F00
3FC0
3000
6000
E000
6000
6000
6000
E000
60E0
3FE0
1F80
0700
0300
1300
1F00
0F00
ENDCHAR
STARTCHAR egrave
ENCODING 232
SWIDTH 547 0
DWIDTH 13 0
BBX 11 20 2 0
BITMAP
2000
3800
3800
0E00
0E00
0600
0000
1C00
3F80
7FC0
60C0
E380
DF00
FF00
F800
E000
C020
E060
7FC0
7F80
ENDCHAR
STARTCHAR eacute
ENCODING 233
SWIDTH 547 0
DWIDTH 13 0
BBX 11 20 2 0
BITMAP
00C0
01C0
0380
0700
0700
0C00
0000
1C00
3F80
7FC0
60C0
E380
DF00
FF00
F800
E000
C020
E060
7FC0
7F80
ENDCHAR
STARTCHAR ecircumflex
ENCODING 234
SWIDTH 547 0
DWIDTH 13 0
BBX 11 20 2 0
BITMAP
0800
0E00
1F80
39C0
70C0
6040
0000
1C00
3F80
7FC0
60C0
E380
DF00
FF00
F800
E000
C020
E060
7FC0
7F80
ENDCHAR
STARTCHAR edieresis
ENCODING 235
SWIDTH 547 0
DWIDTH 13 0
BBX 11 18 2 0
BITMAP
20C0
39C0
1000
0000
0000
1C00
3F80
7FC0
60C0
E380
DF00
FF00
F800
E000
C020
E060
7FC0
7F80
ENDCHAR
STARTCHAR igrave
ENCODING 236
SWIDTH 280 0
DWIDTH 7 0
BBX 5 20 0 0
BITMAP
40
E0
70
38
18
18
00
00
18
18
18
18
30
30
30
30
30
18
18
18
ENDCHAR
STARTCHAR iacute
ENCODING 237
SWIDTH 280 0
DWIDTH 7 0
BBX 5 20 2 0
BITMAP
10
38
70
E0
E0
C0
00
00
60
60
60
60
60
60
60
60
60
60
60
60
ENDCHAR
STARTCHAR icircumflex
ENCODING 238
SWIDTH 280 0
DWIDTH 7 0
BBX 11 20 -2 0
BITMAP
0400
0E00
1F00
3F80
71C0
E0E0
0000
0000
0600
0600
0600
0600
0C00
0C00
0C00
0C00
0C00
0C00
0C00
0C00
ENDCHAR
STARTCHAR idieresis
ENCODING 239
SWIDTH 280 0
DWIDTH 7 0
BBX 10 17 -1 0
BITMAP
4080
E1C0
6180
0000
0000
0C00
0C00
0C00
0C00
0C00
0C00
0C00
0C00
0C00
0C00
0C00
0C00
ENDCHAR
STARTCHAR eth
ENCODING 240
SWIDTH 508 0
DWIDTH 12 0
BBX 9 18 3 0
BITMAP
4000
7900
1F00
1C00
7C00
6E00
0600
0700
3F80
7380
C180
C180
C180
C180
C300
C700
7F00
7C00
ENDCHAR
STARTCHAR ntilde
ENCODING 241
SWIDTH 523 0
DWIDTH 13 0
BBX 12 19 1 0
BITMAP
0820
3E30
6E60
67E0
03C0
0000
4100
EFC0
FFC0
F8E0
78C0
70C0
E0C0
60C0
60C0
60C0
60C0
6060
6060
ENDCHAR
STARTCHAR ograve
ENCODING 242
SWIDTH 525 0
DWIDTH 13 0
BBX 11 20 1 0
BITMAP
0800
0E00
0E00
0380
0180
0180
0000
0200
1F80
3FC0
3FC0
7060
E060
6060
6060
6060
70E0
60C0
3FC0
3F00
ENDCHAR
STARTCHAR oacute
ENCODING 243
SWIDTH 525 0
DWIDTH 13 0
BBX 11 20 1 0
BITMAP
00C0
01C0
01C0
0380
0380
0200
0000
0200
1F80
3FC0
3FC0
7060
E060
6060
6060
6060
70E0
60C0
3FC0
3F00
ENDCHAR
STARTCHAR ocircumflex
ENCODING 244
SWIDTH 525 0
DWIDTH 13 0
BBX 11 20 1 0
BITMAP
0400
0E00
1F80
38E0
3860
6040
0000
0200
1F80
3FC0
3FC0
7060
E060
6060
6060
6060
70E0
60C0
3FC0
3F00
ENDCHAR
STARTCHAR otilde
ENCODING 245
SWIDTH 525 0
DWIDTH 13 0
BBX 12 19 1 0
BITMAP
0810
3E30
7730
63F0
01E0
0000
0200
1F80
3FC0
3FC0
7060
E060
6060
6060
6060
70E0
60C0
3FC0
3F00
ENDCHAR
STARTCHAR odieresis
ENCODING 246
SWIDTH 525 0
DWIDTH 13 0
BBX 12 17 1 0
BITMAP
1020
3870
1860
0000
0200
1F80
3FC0
3FC0
7060
E060
6060
6060
6060
70E0
60C0
3FC0
3F00
ENDCHAR
STARTCHAR divide
ENCODING 247
SWIDTH 480 0
DWIDTH 12 0
BBX 10 11 2 3
BITMAP
0800
1800
0000
0000
0000
FF00
FFC0
0000
0000
0800
1800
ENDCHAR
STARTCHAR oslash
ENCODING 248
SWIDTH 525 0
DWIDTH 13 0
BBX 12 13 1 0
BITMAP
0210
1FB0
3FE0
3CC0
71E0
73E0
7660
E660
7C60
7060
70E0
3FC0
FF00
ENDCHAR
STARTCHAR ugrave
ENCODING 249
SWIDTH 520 0
DWIDTH 12 0
BBX 10 20 1 0
BITMAP
1000
1C00
0E00
0700
0700
0300
0000
2040
E0C0
E0C0
60C0
60C0
60C0
60C0
60C0
60C0
E0C0
70C0
7FC0
3FC0
ENDCHAR
STARTCHAR uacute
ENCODING 250
SWIDTH 520 0
DWIDTH 12 0
BBX 10 20 1 0
BITMAP
00C0
01C0
01C0
0700
0700
0400
0000
2040
E0C0
E0C0
60C0
60C0
60C0
60C0
60C0
60C0
E0C0
70C0
7FC0
3FC0
ENDCHAR
STARTCHAR ucircumflex
ENCODING 251
SWIDTH 520 0
DWIDTH 12 0
BBX 10 20 1 0
BITMAP
0800
0E00
1F80
39C0
70C0
6040
0000
2040
E0C0
E0C0
60C0
60C0
60C0
60C0
60C0
60C0
E0C0
70C0
7FC0
3FC0
ENDCHAR
STARTCHAR udieresis
ENCODING 252
SWIDTH 520 0
DWIDTH 12 0
BBX 11 18 1 0
BITMAP
1080
38E0
3000
0000
0000
2040
E0C0
E0C0
60C0
60C0
60C0
60C0
60C0
60C0
E0C0
70C0
7FC0
3FC0
ENDCHAR
STARTCHAR yacute
ENCODING 253
SWIDTH 520 0
DWIDTH 12 0
BBX 11 26 1 -6
BITMAP
0100
0380
0700
0E00
0E00
0C00
0000
8020
C060
E0E0
E0E0
71C0
71C0
39C0
3B80
1F80
0F00
0E00
0E00
0E00
1C00
1C00
1C00
3800
3000
3800
ENDCHAR
STARTCHAR thorn
ENCODING 254
SWIDTH 534 0
DWIDTH 13 0
BBX 11 24 1 -6
BITMAP
2000
6000
6000
6000
6000
6200
7F80
FFC0
7BC0
E060
E060
7060
7060
7060
70E0
73C0
7FC0
7F00
7000
7000
7000
7000
7000
7000
ENDCHAR
STARTCHAR ydieresis
ENCODING 255
SWIDTH 431 0
DWIDTH 10 0
BBX 11 23 1 -6
BITMAP
2080
70C0
3180
0000
8020
C060
E0E0
E0E0
71C0
71C0
39C0
3B80
1F80
0F00
0E00
0E00
0E00
1C00
1C00
1C00
3800
3000
3800
ENDCHAR
STARTCHAR Amacron
ENCODING 256
SWIDTH 731 0
DWIDTH 18 0
BBX 15 21 2 0
BITMAP
03FC
0000
0000
0020
00E0
00F0
01E0
01F0
01F0
0738
0730
0E30
0E18
1FF8
3FF8
3818
380C
701C
700E
E00E
6006
ENDCHAR
STARTCHAR amacron
ENCODING 257
SWIDTH 511 0
DWIDTH 12 0
BBX 12 16 1 0
BITMAP
1FC0
3FE0
0000
0700
1F80
3EE0
7060
70C0
E0C0
60C0
60C0
60C0
E060
60E0
7FE0
3FF0
ENDCHAR
STARTCHAR Abreve
ENCODING 258
SWIDTH 731 0
DWIDTH 18 0
BBX 15 24 2 0
BITMAP
0402
0606
061C
03F8
0000
0000
0020
00E0
00F0
01E0
01F0
01F0
0738
0730
0E30
0E18
1FF8
3FF8
3818
380C
701C
700E
E00E
6006
ENDCHAR
STARTCHAR abreve
ENCODING 259
SWIDTH 511 0
DWIDTH 12 0
BBX 12 19 1 0
BITMAP
2020
6030
38E0
1FE0
1FC0
0000
0700
1F80
3EE0
7060
70C0
E0C0
60C0
60C0
60C0
E060
60E0
7FE0
3FF0
ENDCHAR
STARTCHAR Aogonek
ENCODING 260
SWIDTH 731 0
DWIDTH 18 0
BBX 18 22 2 -4
BITMAP
002000
00E000
00F000
01E000
01F000
01F000
073800
073000
0E3000
0E1800
1FF800
3FF800
3F1800
380C00
700C00
700E00
E00E00
600E00
001800
0018C0
000FC0
000F00
ENDCHAR
STARTCHAR aogonek
ENCODING 261
SWIDTH 511 0
DWIDTH 12 0
BBX 16 17 1 -4
BITMAP
0700
1F80
3FE0
7060
70C0
E0C0
60C0
60C0
60C0
E060
70E0
7FE0
7FE0
0060
0062
003F
003C
ENDCHAR
STARTCHAR Cacute
ENCODING 262
SWIDTH 602 0
DWIDTH 14 0
BBX 14 25 1 0
BITMAP
0030
0070
00F0
01C0
01C0
0000
0000
01F0
03FC
07F8
0F1C
1C00
1C00
3800
7000
6000
E000
6000
6000
6000
7038
7078
3FF8
3FC0
0F00
ENDCHAR
STARTCHAR cacute
ENCODING 263
SWIDTH 513 0
DWIDTH 12 0
BBX 11 20 1 0
BITMAP
0180
0380
0380
0700
0700
0400
0000
0E00
1F00
3FC0
3000
6000
E000
6000
6000
6000
E000
70E0
3FE0
3F80
ENDCHAR
STARTCHAR Ccircumflex
ENCODING 264
SWIDTH 602 0
DWIDTH 14 0
BBX 14 25 1 0
BITMAP
01C0
03E0
03F0
0738
0C18
0800
0000
01F0
03FC
07F8
0F1C
1C00
1C00
3800
7000
6000
E000
6000
6000
6000
7038
7078
3FF8
3FC0
0F00
ENDCHAR
STARTCHAR ccircumflex
ENCODING 265
SWIDTH 513 0
DWIDTH 12 0
BBX 11 19 1 0
BITMAP
0400
0F00
1F80
1DC0
3860
3020
0E00
1F00
3FC0
3000
6000
E000
6000
6000
6000
E000
70E0
3FE0
3F80
ENDCHAR
STARTCHAR Cdotaccent
ENCODING 266
SWIDTH 602 0
DWIDTH 14 0
BBX 14 22 1 0
BITMAP
00C0
00E0
0000
0000
01F0
03FC
07F8
0F1C
1C00
1C00
3800
7000
6000
E000
6000
6000
6000
7038
7078
3FF8
3FC0
0F00
ENDCHAR
STARTCHAR cdotaccent
ENCODING 267
SWIDTH 513 0
DWIDTH 12 0
BBX 11 17 1 0
BITMAP
0400
0700
0600
0000
0E00
1F00
3FC0
3000
6000
E000
6000
6000
6000
E000
70E0
3FE0
3F80
ENDCHAR
STARTCHAR Ccaron
ENCODING 268
SWIDTH 602 0
DWIDTH 14 0
BBX 14 25 1 0
BITMAP
0200
0618
03B8
01F0
00E0
0080
0000
01F0
03FC
07F8
0F1C
1C00
1C00
3800
7000
6000
E000
6000
6000
6000
7038
7078
3FF8
3FC0
0F00
ENDCHAR
STARTCHAR ccaron
ENCODING 269
SWIDTH 602 0
DWIDTH 14 0
BBX 11 19 1 0
BITMAP
30C0
19E0
0FC0
0F00
0200
0000
0E00
1F00
3FC0
3000
6000
E000
6000
6000
6000
E000
70E0
3FE0
3F80
ENDCHAR
STARTCHAR Dcaron
ENCODING 270
SWIDTH 721 0
DWIDTH 17 0
BBX 15 26 2 -1
BITMAP
1000
30C0
19C0
0F80
0700
0400
2000
7000
FC00
FF80
67C0
E0F0
E070
E038
E01C
E01C
E00E
E00C
600C
601C
601C
601C
6038
FFF0
7FE0
0F00
ENDCHAR
STARTCHAR dcaron
ENCODING 271
SWIDTH 829 0
DWIDTH 20 0
BBX 16 19 2 0
BITMAP
0024
0067
00E3
00E3
0066
0066
1C60
3FE0
7BE0
C1C0
E0C0
C0C0
C0C0
C0C0
C060
E060
61E0
7FE0
1FE0
ENDCHAR
STARTCHAR Dcroat
ENCODING 272
SWIDTH 721 0
DWIDTH 17 0
BBX 16 20 0 -1
BITMAP
1000
1C00
3E00
3FC0
31F0
30F8
181C
180E
180E
7F03
FF83
7F87
3007
3003
3007
300E
301C
3FFC
1FF8
0780
ENDCHAR
STARTCHAR dcroat
ENCODING 273
SWIDTH 602 0
DWIDTH 14 0
BBX 14 19 1 0
BITMAP
0010
0038
0070
03F8
03FC
0030
0E30
1FF0
3FF0
6070
E060
6060
6060
6060
6030
7030
30F0
3FF0
0FF0
ENDCHAR
STARTCHAR Emacron
ENCODING 274
SWIDTH 624 0
DWIDTH 15 0
BBX 13 23 2 -1
BITMAP
0FE0
0000
0000
47F0
FFF8
7CF8
7000
7000
7000
7000
E000
EFF0
FFF0
FF00
6000
6000
6000
6000
6000
E000
7FE0
7FF0
7FE0
ENDCHAR
STARTCHAR emacron
ENCODING 275
SWIDTH 547 0
DWIDTH 13 0
BBX 11 16 2 0
BITMAP
3F80
3FC0
0000
1C00
3F80
7FC0
60C0
E380
DF00
FF00
F800
E000
C020
E060
7FC0
7F80
ENDCHAR
STARTCHAR Ebreve
ENCODING 276
SWIDTH 624 0
DWIDTH 15 0
BBX 13 26 2 -1
BITMAP
1000
1818
1838
0FF0
07E0
0000
47F0
FFF8
7CF8
7000
7000
7000
7000
E000
EFF0
FFF0
FF00
6000
6000
6000
6000
6000
E000
7FE0
7FF0
7FE0
ENDCHAR
STARTCHAR ebreve
ENCODING 277
SWIDTH 547 0
DWIDTH 13 0
BBX 11 19 2 0
BITMAP
4040
C0C0
61C0
7F80
7F00
0000
1C00
3F80
7FC0
60C0
E380
DF00
FF00
F800
E000
C020
E060
7FC0
7F80
ENDCHAR
STARTCHAR Edotaccent
ENCODING 278
SWIDTH 624 0
DWIDTH 15 0
BBX 13 24 2 -1
BITMAP
0100
0180
0180
0000
47F0
FFF8
7CF8
7000
7000
7000
7000
E000
EFF0
FFF0
FF00
6000
6000
6000
6000
6000
E000
7FE0
7FF0
7FE0
ENDCHAR
STARTCHAR edotaccent
ENCODING 279
SWIDTH 547 0
DWIDTH 13 0
BBX 11 17 2 0
BITMAP
0800
0C00
0C00
0000
1C00
3F80
7FC0
60C0
E380
DF00
FF00
F800
E000
C020
E060
7FC0
7F80
ENDCHAR
STARTCHAR Eogonek
ENCODING 280
SWIDTH 624 0
DWIDTH 15 0
BBX 13 23 2 -4
BITMAP
41F0
FFF8
7FF8
7000
7000
7000
7000
E000
E0F0
FFF0
FF00
6000
6000
6000
6000
6000
E000
7FE0
7FF0
7FE0
0180
0190
00F8
ENDCHAR
STARTCHAR eogonek
ENCODING 281
SWIDTH 547 0
DWIDTH 13 0
BBX 11 17 2 -4
BITMAP
1C00
3F80
7FC0
60C0
E380
DF80
FF00
F800
E000
C020
E060
7FC0
7FC0
0700
0600
07C0
03E0
ENDCHAR
STARTCHAR Ecaron
ENCODING 282
SWIDTH 624 0
DWIDTH 15 0
BBX 13 26 2 -1
BITMAP
0800
0E60
0EE0
03C0
0180
0000
47F0
FFF8
7CF8
7000
7000
7000
7000
E000
EFF0
FFF0
FF00
6000
6000
6000
6000
6000
E000
7FE0
7FF0
7FE0
ENDCHAR
STARTCHAR ecaron
ENCODING 283
SWIDTH 547 0
DWIDTH 13 0
BBX 11 19 2 0
BITMAP
30C0
31C0
1BC0
0E00
0C00
0000
1C00
3F80
7FC0
60C0
E380
DF00
FF00
F800
E000
C020
E060
7FC0
7F80
ENDCHAR
STARTCHAR Gcircumflex
ENCODING 284
SWIDTH 679 0
DWIDTH 16 0
BBX 16 25 1 0
BITMAP
0060
01F0
03B8
071C
071C
0C00
0080
03F0
07FC
0E7C
1C00
1C00
3800
3800
6000
703E
E3FF
63FE
67FE
601C
601C
703C
6038
3FF0
3FC0
ENDCHAR
STARTCHAR gcircumflex
ENCODING 285
SWIDTH 530 0
DWIDTH 13 0
BBX 12 26 1 -6
BITMAP
0200
0700
0FC0
1CE0
3860
3020
0000
0000
0F80
3FC0
3060
7060
E060
6070
60E0
60E0
E0E0
60E0
7F60
1E60
0060
00C0
00C0
01C0
7F80
7F80
ENDCHAR
STARTCHAR Gbreve
ENCODING 286
SWIDTH 679 0
DWIDTH 16 0
BBX 16 24 1 0
BITMAP
0404
0C0C
061C
03F8
0000
0080
03F0
07FC
0E7C
1C00
1C00
3800
3800
6000
703E
E3FF
63FE
67FE
601C
601C
703C
6038
3FF0
3FC0
ENDCHAR
STARTCHAR gbreve
ENCODING 287
SWIDTH 530 0
DWIDTH 13 0
BBX 12 25 1 -6
BITMAP
1010
3030
1870
1FE0
1FC0
0000
0000
0F80
3FC0
3060
7060
E060
6070
60E0
60E0
E0E0
60E0
7F60
1E60
0060
00C0
00C0
01C0
7F80
7F80
ENDCHAR
STARTCHAR Gdotaccent
ENCODING 288
SWIDTH 679 0
DWIDTH 16 0
BBX 16 22 1 0
BITMAP
00C0
00E0
0000
0080
03F0
07FC
0E7C
1C00
1C00
3800
3800
6000
703E
E3FF
63FE
67FE
601C
601C
703C
6038
3FF0
3FC0
ENDCHAR
STARTCHAR gdotaccent
ENCODING 289
SWIDTH 530 0
DWIDTH 13 0
BBX 12 23 1 -6
BITMAP
0100
0180
0180
0000
0000
0F80
3FC0
3060
7060
E060
6070
60E0
60E0
E0E0
60E0
7F60
1E60
0060
00C0
00C0
01C0
7F80
7F80
ENDCHAR
STARTCHAR uni0122
ENCODING 290
SWIDTH 679 0
DWIDTH 16 0
BBX 16 24 1 -5
BITMAP
0080
03F0
07FC
0F9C
1C00
1C00
3800
3800
6000
7002
E1FF
67FE
67FE
601C
601C
7038
60F0
3FF8
1FC0
0E00
0300
2300
3F00
1C00
ENDCHAR
STARTCHAR uni0123
ENCODING 291
SWIDTH 530 0
DWIDTH 13 0
BBX 12 26 1 -6
BITMAP
0100
0300
0600
0600
0700
0300
0000
0000
0F80
3FC0
3060
7060
E060
6070
60E0
60E0
E0E0
60E0
7F60
1E60
0060
00C0
00C0
01C0
7F80
7F80
ENDCHAR
STARTCHAR Hcircumflex
ENCODING 292
SWIDTH 768 0
DWIDTH 18 0
BBX 16 25 2 0
BITMAP
00C0
03E0
0770
0E38
0C1C
0C00
2002
6003
6003
7006
7006
E006
E006
E006
E006
E3FE
7FFF
7F07
7007
E007
E006
6006
6006
6006
6006
ENDCHAR
STARTCHAR hcircumflex
ENCODING 293
SWIDTH 577 0
DWIDTH 14 0
BBX 12 25 2 0
BITMAP
0180
07C0
0EE0
1C70
3870
1000
4000
6000
E000
7000
E000
E000
E100
6FC0
FFC0
7FE0
7860
7060
7060
E060
E060
E060
60E0
6070
6060
ENDCHAR
STARTCHAR Hbar
ENCODING 294
SWIDTH 768 0
DWIDTH 18 0
BBX 19 19 1 0
BITMAP
100100
300180
300180
7FFFC0
FFFFE0
FFFFC0
300180
380180
300300
307F00
3FFF00
3F8300
300300
380300
380300
380300
700300
300300
300300
ENDCHAR
STARTCHAR hbar
ENCODING 295
SWIDTH 577 0
DWIDTH 14 0
BBX 14 19 0 0
BITMAP
1000
1800
1800
7F00
FF80
1800
1840
1BF0
1FF0
3FF0
1E30
1C30
3830
1830
1818
1818
1818
1838
181C
ENDCHAR
STARTCHAR Itilde
ENCODING 296
SWIDTH 546 0
DWIDTH 13 0
BBX 11 24 2 0
BITMAP
2040
7C60
DCC0
CF80
0000
0000
F000
FFC0
EFE0
1C00
0C00
0C00
0C00
0C00
0C00
0C00
0C00
0C00
0C00
0C00
0C00
1FC0
FFE0
FC00
ENDCHAR
STARTCHAR itilde
ENCODING 297
SWIDTH 280 0
DWIDTH 7 0
BBX 11 19 -2 0
BITMAP
1020
7C60
EE60
C7E0
03C0
0000
0000
0600
0600
0700
0700
0700
0E00
0E00
0E00
0E00
0700
0700
0600
ENDCHAR
STARTCHAR Imacron
ENCODING 298
SWIDTH 546 0
DWIDTH 13 0
BBX 11 21 2 0
BITMAP
7F80
0000
0000
F000
FFC0
EFE0
1C00
0C00
0C00
0C00
0C00
0C00
0C00
0C00
0C00
0C00
0C00
0C00
1FC0
FFE0
FC00
ENDCHAR
STARTCHAR imacron
ENCODING 299
SWIDTH 280 0
DWIDTH 7 0
BBX 8 16 0 0
BITMAP
FE
FF
00
00
18
38
38
18
18
18
18
18
18
18
18
18
ENDCHAR
STARTCHAR Ibreve
ENCODING 300
SWIDTH 546 0
DWIDTH 13 0
BBX 11 24 2 0
BITMAP
4040
C0C0
61C0
7F00
0000
0000
F000
FFC0
EFE0
1C00
0C00
0C00
0C00
0C00
0C00
0C00
0C00
0C00
0C00
0C00
0C00
1FC0
FFE0
FC00
ENDCHAR
STARTCHAR ibreve
ENCODING 301
SWIDTH 280 0
DWIDTH 7 0
BBX 10 19 -1 0
BITMAP
4040
C0C0
E1C0
7F80
3F80
0000
0000
0C00
0C00
0C00
0C00
0C00
0C00
0C00
0C00
0C00
0C00
0C00
0C00
ENDCHAR
STARTCHAR Iogonek
ENCODING 302
SWIDTH 546 0
DWIDTH 13 0
BBX 11 22 2 -4
BITMAP
F000
FFC0
EFE0
1C00
0C00
0C00
0C00
0C00
0C00
0C00
0C00
0C00
0C00
0C00
0C00
1FC0
FFE0
FC00
1800
1880
0F80
1E00
ENDCHAR
STARTCHAR iogonek
ENCODING 303
SWIDTH 280 0
DWIDTH 7 0
BBX 6 22 1 -4
BITMAP
18
38
18
00
00
00
30
30
30
30
30
30
30
30
30
30
70
F0
C0
64
7C
78
ENDCHAR
STARTCHAR Idotaccent
ENCODING 304
SWIDTH 546 0
DWIDTH 13 0
BBX 11 22 2 0
BITMAP
0C00
0E00
0000
0000
F000
FFC0
EFE0
1C00
0C00
0C00
0C00
0C00
0C00
0C00
0C00
0C00
0C00
0C00
0C00
1FC0
FFE0
FC00
ENDCHAR
STARTCHAR dotlessi
ENCODING 305
SWIDTH 280 0
DWIDTH 7 0
BBX 3 12 2 0
BITMAP
60
E0
60
60
60
60
60
60
60
60
60
60
ENDCHAR
STARTCHAR IJ
ENCODING 306
SWIDTH 1126 0
DWIDTH 27 0
BBX 25 19 2 -1
BITMAP
F001FC00
FFC3FF80
EFE01800
1C001800
0C001800
0C001800
0C001800
0C001800
0C001800
0C001800
0C003000
0C003000
0C103000
0C383000
0C387000
1FDC3000
FFEFF000
FC07F000
0001E000
ENDCHAR
STARTCHAR ij
ENCODING 307
SWIDTH 530 0
DWIDTH 13 0
BBX 9 24 2 -6
BITMAP
6300
7700
6300
0000
0000
0100
6300
E300
6300
6300
6300
6180
6180
6180
6180
6180
6180
6180
0380
2380
7380
7180
3F00
1F00
ENDCHAR
STARTCHAR Jcircumflex
ENCODING 308
SWIDTH 665 0
DWIDTH 16 0
BBX 14 26 2 -1
BITMAP
0180
07C0
0EE0
1C70
1C70
3000
0000
0FE0
1FFC
0180
0180
0180
0180
0180
0180
0180
0180
0180
0180
81C0
C380
C180
F180
7F80
3F00
1E00
ENDCHAR
STARTCHAR jcircumflex
ENCODING 309
SWIDTH 403 0
DWIDTH 10 0
BBX 10 26 -1 -6
BITMAP
0800
1C00
3F00
71C0
70C0
C040
0000
0200
0300
0700
0380
0380
0380
0380
0300
0300
0300
0300
0180
0180
0180
4180
7180
7300
3F00
1F00
ENDCHAR
STARTCHAR uni0136
ENCODING 310
SWIDTH 610 0
DWIDTH 15 0
BBX 13 23 2 -5
BITMAP
6030
E070
E1E0
E1E0
E380
6780
6E00
7C00
7C00
7800
7800
7C00
6E00
6780
63C0
63C0
64E0
6F38
6780
0380
0980
1F00
0F00
ENDCHAR
STARTCHAR uni0137
ENCODING 311
SWIDTH 540 0
DWIDTH 13 0
BBX 12 24 2 -5
BITMAP
6000
E000
E000
7000
7000
E000
E0C0
E1C0
E3C0
E300
EE00
FE00
7F00
FB80
6380
6180
61C0
68E0
6F70
0F00
0380
1180
1F80
0F00
ENDCHAR
STARTCHAR kgreenlandic
ENCODING 312
SWIDTH 540 0
DWIDTH 13 0
BBX 12 14 1 0
BITMAP
6000
E0E0
E1E0
E380
E380
EF00
7E00
7F00
7F80
6380
6180
60E0
60E0
6070
ENDCHAR
STARTCHAR Lacute
ENCODING 313
SWIDTH 550 0
DWIDTH 13 0
BBX 12 26 1 -1
BITMAP
0180
0380
0780
0E00
0C00
0000
0000
6000
6000
6000
6000
6000
7000
7000
7000
7000
7000
E000
E000
E000
6000
6000
6010
FFF0
FFE0
7E00
ENDCHAR
STARTCHAR lacute
ENCODING 314
SWIDTH 273 0
DWIDTH 7 0
BBX 6 26 2 0
BITMAP
08
1C
1C
38
70
20
00
20
70
70
E0
E0
E0
E0
E0
E0
E0
E0
60
60
60
60
60
60
60
60
ENDCHAR
STARTCHAR uni013B
ENCODING 315
SWIDTH 550 0
DWIDTH 13 0
BBX 12 23 1 -5
BITMAP
6000
6000
6000
6000
6000
7000
7000
7000
7000
7000
E000
E000
E000
E000
6000
6010
FFF0
FFE0
7F00
0180
1180
1F80
1E00
ENDCHAR
STARTCHAR uni013C
ENCODING 316
SWIDTH 273 0
DWIDTH 7 0
BBX 7 24 2 -5
BITMAP
20
70
70
E0
E0
E0
E0
E0
E0
E0
E0
E0
60
60
60
60
60
60
F8
3C
0E
4C
7C
38
ENDCHAR
STARTCHAR Lcaron
ENCODING 317
SWIDTH 550 0
DWIDTH 13 0
BBX 12 19 1 -1
BITMAP
6100
61C0
60C0
60C0
6180
7000
7000
7000
7000
7000
E000
E000
E000
6000
6000
6010
FFF0
FFE0
7E00
ENDCHAR
STARTCHAR lcaron
ENCODING 318
SWIDTH 464 0
DWIDTH 11 0
BBX 8 19 2 0
BITMAP
24
77
73
E6
E7
EC
E0
E0
E0
E0
E0
60
60
60
60
60
60
60
60
ENDCHAR
STARTCHAR Ldot
ENCODING 319
SWIDTH 550 0
DWIDTH 13 0
BBX 12 19 1 -1
BITMAP
6000
6000
6000
6000
6000
7000
7000
7000
70C0
71C0
E0C0
E000
E000
6000
6000
6010
FFF0
FFE0
7E00
ENDCHAR
STARTCHAR ldot
ENCODING 320
SWIDTH 395 0
DWIDTH 9 0
BBX 8 19 2 0
BITMAP
20
70
70
E0
E0
E0
E0
E0
E0
E6
E7
66
60
60
60
60
60
60
60
ENDCHAR
STARTCHAR Lslash
ENCODING 321
SWIDTH 550 0
DWIDTH 13 0
BBX 14 19 -1 -1
BITMAP
1800
3800
3800
3800
3800
1900
3F00
1F00
7800
F800
F800
F800
1800
3000
3000
3008
3FFC
3FF8
1F80
ENDCHAR
STARTCHAR lslash
ENCODING 322
SWIDTH 227 0
DWIDTH 5 0
BBX 8 18 -1 0
BITMAP
18
18
18
18
18
1A
1F
1E
1C
18
78
F8
18
18
18
18
18
18
ENDCHAR
STARTCHAR Nacute
ENCODING 323
SWIDTH 796 0
DWIDTH 19 0
BBX 17 25 1 0
BITMAP
002000
007000
00E000
01C000
018000
000000
200000
700100
700380
780380
7C0380
FC0380
EE0380
E70380
E38380
E18380
E1C380
E0E380
E07380
E03B80
E01F80
E00F80
E00F80
E00380
600380
ENDCHAR
STARTCHAR nacute
ENCODING 324
SWIDTH 523 0
DWIDTH 13 0
BBX 11 20 1 0
BITMAP
0100
0380
0380
0E00
0E00
0C00
0000
4100
EFC0
FFC0
F8E0
78C0
70C0
E0C0
60C0
60C0
60C0
60C0
6060
6060
ENDCHAR
STARTCHAR uni0145
ENCODING 325
SWIDTH 796 0
DWIDTH 19 0
BBX 17 24 1 -5
BITMAP
200000
700100
700380
780380
7C0380
FC0380
EE0380
E70380
E38380
E18380
E1C380
E0E380
E07380
E03B80
E01F80
E00F80
E00F80
E10380
63C380
01E000
00E000
026000
03E000
03C000
ENDCHAR
STARTCHAR uni0146
ENCODING 326
SWIDTH 523 0
DWIDTH 13 0
BBX 11 18 1 -5
BITMAP
4100
EFC0
FFC0
F8E0
78C0
70C0
E0C0
60C0
60C0
60C0
60C0
6860
7E60
0F00
0380
1180
3F00
0F00
ENDCHAR
STARTCHAR Ncaron
ENCODING 327
SWIDTH 796 0
DWIDTH 19 0
BBX 17 25 1 0
BITMAP
040000
061800
073800
01F000
01C000
008000
200000
700100
700380
780380
7C0380
FC0380
EE0380
E70380
E38380
E18380
E1C380
E0E380
E07380
E03B80
E01F80
E00F80
E00F80
E00380
600380
ENDCHAR
STARTCHAR ncaron
ENCODING 328
SWIDTH 523 0
DWIDTH 13 0
BBX 11 19 1 0
BITMAP
30C0
1DC0
1FC0
0700
0400
0000
4100
EFC0
FFC0
F8E0
78C0
70C0
E0C0
60C0
60C0
60C0
60C0
6060
6060
ENDCHAR
STARTCHAR napostrophe
ENCODING 329
SWIDTH 621 0
DWIDTH 15 0
BBX 14 19 1 0
BITMAP
2000
6000
6000
6000
C000
C000
0820
0FF8
0FF8
0F98
0F18
0E18
0E18
1C18
1C18
0C18
0C0C
0C0C
1C0C
ENDCHAR
STARTCHAR Eng
ENCODING 330
SWIDTH 796 0
DWIDTH 19 0
BBX 17 25 1 -6
BITMAP
200000
700100
700380
780380
7C0380
FC0380
EE0380
E70380
E38380
E18380
E1C380
E0E380
E07380
E03B80
E01F80
E00F80
E00F80
E00780
600380
000180
000180
000300
003F00
003F00
001C00
ENDCHAR
STARTCHAR eng
ENCODING 331
SWIDTH 523 0
DWIDTH 13 0
BBX 11 19 1 -6
BITMAP
4100
EFC0
FFC0
F8E0
78C0
70C0
E0C0
60C0
60C0
60C0
60C0
60C0
6060
0060
0060
0860
0CC0
1FC0
07C0
ENDCHAR
STARTCHAR Omacron
ENCODING 332
SWIDTH 798 0
DWIDTH 19 0
BBX 18 21 1 0
BITMAP
01FE00
000000
000000
004000
0FFE00
0FFE00
3C0380
380380
380380
7001C0
7001C0
E00380
600380
600180
600380
E00700
700600
381E00
3C3E00
1FFC00
07F000
ENDCHAR
STARTCHAR omacron
ENCODING 333
SWIDTH 525 0
DWIDTH 13 0
BBX 11 16 1 0
BITMAP
1FC0
3FC0
0000
0200
1F80
3FC0
3FC0
7060
E060
6060
6060
6060
70E0
60C0
3FC0
3F00
ENDCHAR
STARTCHAR Obreve
ENCODING 334
SWIDTH 798 0
DWIDTH 19 0
BBX 18 24 1 0
BITMAP
020100
030300
018E00
01FC00
000000
000000
004000
0FFE00
0FFE00
3C0380
380380
380380
7001C0
7001C0
E00380
600380
600180
600380
E00700
700600
381E00
3C3E00
1FFC00
07F000
ENDCHAR
STARTCHAR obreve
ENCODING 335
SWIDTH 525 0
DWIDTH 13 0
BBX 12 19 1 0
BITMAP
2020
3030
3070
1FE0
1F80
0000
0200
1F80
3FC0
3FC0
7060
E060
6060
6060
6060
70E0
60C0
3FC0
3F00
ENDCHAR
STARTCHAR Ohungarumlaut
ENCODING 336
SWIDTH 798 0
DWIDTH 19 0
BBX 18 24 1 0
BITMAP
006200
00EF00
00DC00
01D800
000000
000000
004000
0FFE00
0FFE00
3C0380
380380
380380
7001C0
7001C0
E00380
600380
600180
600380
E00700
700600
381E00
3C3E00
1FFC00
07F000
ENDCHAR
STARTCHAR ohungarumlaut
ENCODING 337
SWIDTH 525 0
DWIDTH 13 0
BBX 11 19 1 0
BITMAP
0620
0EE0
0DC0
1F80
3380
0000
0200
1F80
3FC0
3FC0
7060
E060
6060
6060
6060
70E0
60C0
3FC0
3F00
ENDCHAR
STARTCHAR OE
ENCODING 338
SWIDTH 1193 0
DWIDTH 29 0
BBX 27 19 2 0
BITMAP
0000FFC0
01F9FFE0
0FFFFC60
0FFFC000
3C03C000
38038000
3801C000
7001C000
7003FFC0
E001FFE0
6001F000
60038000
6003C000
E0078000
70078000
380FC000
3C3FC000
1FFDFF80
0FF0FFC0
ENDCHAR
STARTCHAR oe
ENCODING 339
SWIDTH 896 0
DWIDTH 22 0
BBX 21 13 1 0
BITMAP
020E00
1F9FC0
3FDFE0
3FF060
7071E0
E0E7C0
606FC0
60FC00
60F000
70F010
60F818
3FFFF0
3F0FE0
ENDCHAR
STARTCHAR Racute
ENCODING 340
SWIDTH 628 0
DWIDTH 15 0
BBX 14 26 1 0
BITMAP
0080
01C0
0380
0700
0E00
0400
0000
0000
7800
7F00
E7E0
70E0
70F0
7038
7030
E030
E070
60E0
7FE0
7F00
7F00
63E0
60F0
6078
E01C
E018
ENDCHAR
STARTCHAR racute
ENCODING 341
SWIDTH 480 0
DWIDTH 12 0
BBX 9 20 2 0
BITMAP
0300
0700
0700
0E00
1C00
0800
0000
4700
7F80
FF80
F180
E180
6000
6000
6000
6000
6000
6000
6000
6000
ENDCHAR
STARTCHAR uni0156
ENCODING 342
SWIDTH 628 0
DWIDTH 15 0
BBX 14 23 1 -5
BITMAP
7800
7F00
E7E0
70E0
70F0
7038
7030
E030
E070
60E0
7FE0
7F00
7F00
63E0
60F0
6078
E41C
EF18
0780
0380
0980
0F80
0780
ENDCHAR
STARTCHAR uni0157
ENCODING 343
SWIDTH 480 0
DWIDTH 12 0
BBX 9 18 2 -5
BITMAP
4100
DF80
FF80
F180
E180
6000
6000
6000
6000
6000
6000
6000
F000
3800
1800
9800
F800
7000
ENDCHAR
STARTCHAR Rcaron
ENCODING 344
SWIDTH 628 0
DWIDTH 15 0
BBX 14 25 1 0
BITMAP
1000
30C0
1DC0
0F80
0700
0400
0000
7800
7F00
E7E0
70E0
70F0
7038
7030
E030
E070
60E0
7FE0
7F00
7F00
63E0
60F0
6078
E01C
E018
ENDCHAR
STARTCHAR rcaron
ENCODING 345
SWIDTH 480 0
DWIDTH 12 0
BBX 9 19 2 0
BITMAP
6100
3380
1F80
1C00
0C00
0000
4700
7F80
FF80
F180
E180
6000
6000
6000
6000
6000
6000
6000
6000
ENDCHAR
STARTCHAR Sacute
ENCODING 346
SWIDTH 693 0
DWIDTH 17 0
BBX 14 25 3 0
BITMAP
00C0
01C0
03C0
0700
0600
0000
0000
0380
0FC0
1FF0
3800
7000
7000
7000
3F00
1FF0
03F0
0078
001C
001C
8038
C038
E078
FFE0
3FE0
ENDCHAR
STARTCHAR sacute
ENCODING 347
SWIDTH 486 0
DWIDTH 12 0
BBX 10 20 1 0
BITMAP
0180
0380
0380
0E00
0E00
0800
0180
07C0
3FC0
7FC0
7980
6000
7000
7E00
0780
0380
0180
C180
FF80
7F00
ENDCHAR
STARTCHAR Scircumflex
ENCODING 348
SWIDTH 693 0
DWIDTH 17 0
BBX 14 25 3 0
BITMAP
0300
0FC0
1FC0
1CE0
1830
1000
0000
0380
0FC0
1FF0
3800
7000
7000
7000
3F00
1FF0
03F0
0078
001C
001C
8038
C038
E078
FFE0
3FE0
ENDCHAR
STARTCHAR scircumflex
ENCODING 349
SWIDTH 486 0
DWIDTH 12 0
BBX 10 20 1 0
BITMAP
0800
1C00
3F00
7380
E380
C180
0180
07C0
3FC0
7FC0
7980
6000
7000
7E00
0780
0380
0180
C180
FF80
7F00
ENDCHAR
STARTCHAR Scedilla
ENCODING 350
SWIDTH 693 0
DWIDTH 17 0
BBX 14 23 3 -5
BITMAP
0380
0FC0
1FF0
3800
7000
7000
7000
3F00
1FF0
03F0
0078
001C
001C
8038
C038
E078
FFE0
7F80
0E00
0300
1300
3E00
1C00
ENDCHAR
STARTCHAR scedilla
ENCODING 351
SWIDTH 486 0
DWIDTH 12 0
BBX 10 19 1 -5
BITMAP
0180
07C0
3FC0
7FC0
7980
6000
7000
7E00
0780
0380
0180
C180
FF80
7F00
1C00
0C00
4600
FC00
3800
ENDCHAR
STARTCHAR Scaron
ENCODING 352
SWIDTH 693 0
DWIDTH 17 0
BBX 14 25 3 0
BITMAP
0400
0C30
0670
03E0
01C0
0100
0000
0380
0FC0
1FF0
3800
7000
7000
7000
3F00
1FF0
03F0
0078
001C
001C
8038
C038
E078
FFE0
3FE0
ENDCHAR
STARTCHAR scaron
ENCODING 353
SWIDTH 486 0
DWIDTH 12 0
BBX 10 19 2 0
BITMAP
6180
7380
1F80
0E00
0800
0180
07C0
3FC0
7FC0
7980
6000
7000
7E00
0780
0380
0180
C180
FF80
7F00
ENDCHAR
STARTCHAR uni0162
ENCODING 354
SWIDTH 679 0
DWIDTH 16 0
BBX 16 22 1 -4
BITMAP
FFFE
7FFF
3FFF
0180
0180
0380
0380
01C0
01C0
0180
0180
0180
0180
0180
0180
0180
03C0
01E0
00E0
0260
07E0
03C0
ENDCHAR
STARTCHAR uni0163
ENCODING 355
SWIDTH 471 0
DWIDTH 11 0
BBX 10 21 1 -4
BITMAP
0400
0E00
0C00
0C00
3FC0
FFC0
7FC0
0C00
0C00
0C00
0C00
0C00
0C00
0600
0600
0600
0F00
0380
0180
0980
1F00
ENDCHAR
STARTCHAR Tcaron
ENCODING 356
SWIDTH 679 0
DWIDTH 16 0
BBX 16 25 1 0
BITMAP
0410
0E70
0370
03C0
0180
0000
0000
FFFE
7FFF
3FFF
0180
0180
0380
0380
01C0
01C0
0180
0180
0180
0180
0180
0180
0180
0180
0180
ENDCHAR
STARTCHAR tcaron
ENCODING 357
SWIDTH 639 0
DWIDTH 15 0
BBX 14 17 1 0
BITMAP
0408
0E1C
0C1C
0C0C
3FCC
FFD8
7FC0
0C00
0C00
0C00
0C00
0C00
0C00
0600
0600
0600
0C00
ENDCHAR
STARTCHAR Tbar
ENCODING 358
SWIDTH 679 0
DWIDTH 16 0
BBX 16 18 0 0
BITMAP
FFFE
7FFF
3FFF
0180
0180
0380
0380
0FE0
1FF0
1FF0
0180
0180
0180
0180
0180
0180
0180
0080
ENDCHAR
STARTCHAR tbar
ENCODING 359
SWIDTH 471 0
DWIDTH 11 0
BBX 10 17 1 0
BITMAP
0400
0E00
0C00
0C00
3FC0
FFC0
7F80
0C00
3C00
7F00
7F80
0C00
0600
0600
0600
0600
0C00
ENDCHAR
STARTCHAR Utilde
ENCODING 360
SWIDTH 736 0
DWIDTH 18 0
BBX 15 24 2 0
BITMAP
0408
0F98
1B98
31F0
0000
0000
4004
6006
6006
6006
6006
6006
6006
6006
6006
600C
600C
E00E
700C
701C
3838
3C38
1FF0
07E0
ENDCHAR
STARTCHAR utilde
ENCODING 361
SWIDTH 520 0
DWIDTH 12 0
BBX 11 19 1 0
BITMAP
1020
7C60
EE60
C7E0
03C0
0000
2020
6060
7060
E060
E0C0
E0C0
E0C0
E0C0
70C0
60C0
60C0
3FE0
1FE0
ENDCHAR
STARTCHAR Umacron
ENCODING 362
SWIDTH 736 0
DWIDTH 18 0
BBX 15 21 2 0
BITMAP
0FF0
0000
0000
4004
6006
6006
6006
6006
6006
6006
6006
6006
600C
600C
E00E
700C
701C
3838
3C38
1FF0
07E0
ENDCHAR
STARTCHAR umacron
ENCODING 363
SWIDTH 520 0
DWIDTH 12 0
BBX 10 16 1 0
BITMAP
3F80
7FC0
0000
2040
E0C0
E0C0
60C0
60C0
60C0
60C0
60C0
60C0
E0C0
70C0
7FC0
3FC0
ENDCHAR
STARTCHAR Ubreve
ENCODING 364
SWIDTH 736 0
DWIDTH 18 0
BBX 15 24 2 0
BITMAP
0808
1818
0C38
07F0
0000
0000
4004
6006
6006
6006
6006
6006
6006
6006
6006
600C
600C
E00E
700C
701C
3838
3C38
1FF0
07E0
ENDCHAR
STARTCHAR ubreve
ENCODING 365
SWIDTH 520 0
DWIDTH 12 0
BBX 11 19 1 0
BITMAP
4040
6060
60E0
3FC0
3F00
0000
2040
E0C0
E0C0
60C0
60C0
60C0
60C0
60C0
60C0
E0C0
70C0
7FC0
3FC0
ENDCHAR
STARTCHAR Uring
ENCODING 366
SWIDTH 736 0
DWIDTH 18 0
BBX 15 26 2 0
BITMAP
0100
07C0
0C70
1830
0CE0
0FC0
0000
0000
4004
6006
6006
6006
6006
6006
6006
6006
6006
600C
600C
E00E
700C
701C
3838
3C38
1FF0
07E0
ENDCHAR
STARTCHAR uring
ENCODING 367
SWIDTH 520 0
DWIDTH 12 0
BBX 10 21 1 0
BITMAP
0400
3F00
7980
6180
6180
3F80
3F00
0000
2040
E0C0
E0C0
60C0
60C0
60C0
60C0
60C0
60C0
E0C0
70C0
7FC0
3FC0
ENDCHAR
STARTCHAR Uhungarumlaut
ENCODING 368
SWIDTH 736 0
DWIDTH 18 0
BBX 15 24 2 0
BITMAP
0188
03B8
0370
0760
0000
0000
4004
6006
6006
6006
6006
6006
6006
6006
6006
600C
600C
E00E
700C
701C
3838
3C38
1FF0
07E0
ENDCHAR
STARTCHAR uhungarumlaut
ENCODING 369
SWIDTH 520 0
DWIDTH 12 0
BBX 11 19 1 0
BITMAP
0620
0EE0
1DC0
1DC0
1B80
0000
2040
E0C0
E0C0
60C0
60C0
60C0
60C0
60C0
60C0
E0C0
70C0
7FC0
3FC0
ENDCHAR
STARTCHAR Uogonek
ENCODING 370
SWIDTH 736 0
DWIDTH 18 0
BBX 15 23 2 -5
BITMAP
4004
6006
6006
6006
6006
6006
6006
6006
6006
600C
600C
E00E
700C
701C
3838
3C38
1FF0
07E0
0380
0700
0320
01F0
03C0
ENDCHAR
STARTCHAR uogonek
ENCODING 371
SWIDTH 520 0
DWIDTH 12 0
BBX 13 18 1 -5
BITMAP
2040
E0C0
E0C0
60C0
60C0
60C0
60C0
60C0
60C0
E0C0
70C0
7FC0
3FC0
01C0
0380
0310
01F8
01E0
ENDCHAR
STARTCHAR Wcircumflex
ENCODING 372
SWIDTH 1039 0
DWIDTH 25 0
BBX 22 26 3 -1
BITMAP
003000
00F800
00FE00
01CE00
018300
020000
000000
802008
C0701C
E0781C
60781C
E0F838
70F818
30F838
31D830
39D860
339870
1B8C60
1B9CC0
3F0EC0
1F0D80
1E0DC0
0E0780
0E0780
0E0700
000300
ENDCHAR
STARTCHAR wcircumflex
ENCODING 373
SWIDTH 684 0
DWIDTH 16 0
BBX 15 20 1 0
BITMAP
0100
07C0
0FE0
0E70
1C30
1818
0000
4102
6386
638E
E386
73CC
76CC
66DC
66CC
3CD8
3CD8
3C78
3878
3870
ENDCHAR
STARTCHAR Ycircumflex
ENCODING 374
SWIDTH 635 0
DWIDTH 15 0
BBX 14 25 0 0
BITMAP
0300
07C0
0FC0
1C70
3870
1000
0000
6004
E00C
701C
381C
3838
1C38
0E70
0C70
0EE0
07E0
03E0
01C0
01C0
0380
0380
0300
0700
0600
ENDCHAR
STARTCHAR ycircumflex
ENCODING 375
SWIDTH 520 0
DWIDTH 12 0
BBX 11 26 1 -6
BITMAP
0800
1E00
3B80
71C0
70C0
6040
0000
8020
C060
E0E0
E0E0
71C0
71C0
39C0
3B80
1F80
0F00
0E00
0E00
0E00
1C00
1C00
1C00
3800
3000
3800
ENDCHAR
STARTCHAR Ydieresis
ENCODING 376
SWIDTH 635 0
DWIDTH 15 0
BBX 14 22 0 0
BITMAP
0430
0E38
0000
0000
6004
E00C
701C
381C
3838
1C38
0E70
0C70
0EE0
07E0
03E0
01C0
01C0
0380
0380
0300
0700
0600
ENDCHAR
STARTCHAR Zacute
ENCODING 377
SWIDTH 693 0
DWIDTH 17 0
BBX 15 26 2 0
BITMAP
0040
00E0
01C0
0380
0380
0600
0000
0000
7FF0
FFFE
003C
0078
00F0
01C0
0380
0380
0700
0E00
1C00
1C00
3800
7000
7000
E000
FFFC
FFFE
ENDCHAR
STARTCHAR zacute
ENCODING 378
SWIDTH 538 0
DWIDTH 13 0
BBX 11 20 2 0
BITMAP
0300
0700
0700
0E00
1C00
0800
0000
7FC0
FFE0
7FC0
01C0
0700
0700
0E00
0E00
1C00
3800
7000
FFC0
FFC0
ENDCHAR
STARTCHAR Zdotaccent
ENCODING 379
SWIDTH 693 0
DWIDTH 17 0
BBX 15 22 2 0
BITMAP
0300
0380
0000
0000
7FF0
FFFE
003C
0078
00F0
01C0
0380
0380
0700
0E00
1C00
1C00
3800
7000
7000
E000
FFFC
FFFE
ENDCHAR
STARTCHAR zdotaccent
ENCODING 380
SWIDTH 538 0
DWIDTH 13 0
BBX 11 17 2 0
BITMAP
0800
0E00
0600
0000
7FC0
FFE0
7FC0
01C0
0700
0700
0E00
0E00
1C00
3800
7000
FFC0
FFC0
ENDCHAR
STARTCHAR Zcaron
ENCODING 381
SWIDTH 693 0
DWIDTH 17 0
BBX 15 26 2 0
BITMAP
0800
0C60
06E0
03C0
0180
0000
0000
0000
7FF0
FFFE
003C
0078
00F0
01C0
0380
0380
0700
0E00
1C00
1C00
3800
7000
7000
E000
FFFC
FFFE
ENDCHAR
STARTCHAR zcaron
ENCODING 382
SWIDTH 538 0
DWIDTH 13 0
BBX 11 19 2 0
BITMAP
C300
E700
3F00
1C00
1000
0000
7FC0
FFE0
7FC0
01C0
0700
0700
0E00
0E00
1C00
3800
7000
FFC0
FFC0
ENDCHAR
STARTCHAR longs
ENCODING 383
SWIDTH 508 0
DWIDTH 12 0
BBX 8 20 4 -1
BITMAP
0E
3F
3C
70
70
70
E0
E0
E0
E0
60
60
60
60
60
60
60
60
60
60
ENDCHAR
STARTCHAR semicolon.dup1
ENCODING 894
SWIDTH 298 0
DWIDTH 7 0
BBX 4 16 2 -2
BITMAP
20
60
70
60
00
00
00
00
00
00
00
20
E0
E0
C0
C0
ENDCHAR
STARTCHAR periodcentered.dup2
ENCODING 8729
SWIDTH 249 0
DWIDTH 6 0
BBX 3 3 2 7
BITMAP
60
E0
60
ENDCHAR
ENDFONT
